<svg width="19" height="32" viewBox="0 0 19 32" fill="none" xmlns="http://www.w3.org/2000/svg">
<path d="M18.484 21.196C18.484 22.18 18.292 23.068 17.908 23.86C17.548 24.652 17.032 25.348 16.36 25.948C15.688 26.548 14.872 27.028 13.912 27.388C12.976 27.724 11.944 27.928 10.816 28V31.528H8.512V27.928C6.904 27.784 5.404 27.4 4.012 26.776C2.62 26.152 1.288 25.3 0.0160001 24.22L1.636 22.06C2.716 23.044 3.808 23.824 4.912 24.4C6.016 24.976 7.252 25.336 8.62 25.48V16.48C5.956 15.856 4.012 15.004 2.788 13.924C1.564 12.844 0.952 11.356 0.952 9.46C0.952 8.524 1.132 7.672 1.492 6.904C1.876 6.112 2.404 5.428 3.076 4.852C3.748 4.252 4.54 3.772 5.452 3.412C6.388 3.052 7.408 2.848 8.512 2.8V0.711999H10.816V2.872C12.184 2.992 13.408 3.304 14.488 3.808C15.568 4.288 16.636 4.936 17.692 5.752L16.144 7.912C15.28 7.168 14.392 6.592 13.48 6.184C12.592 5.776 11.668 5.488 10.708 5.32V14.176C13.444 14.8 15.424 15.676 16.648 16.804C17.872 17.908 18.484 19.372 18.484 21.196ZM8.62 13.672V5.212C7.852 5.236 7.168 5.368 6.568 5.608C5.968 5.824 5.452 6.112 5.02 6.472C4.612 6.832 4.288 7.252 4.048 7.732C3.832 8.212 3.724 8.728 3.724 9.28C3.724 9.784 3.796 10.252 3.94 10.684C4.084 11.116 4.336 11.512 4.696 11.872C5.056 12.232 5.548 12.568 6.172 12.88C6.82 13.168 7.636 13.432 8.62 13.672ZM15.712 21.376C15.712 20.848 15.64 20.368 15.496 19.936C15.352 19.504 15.088 19.108 14.704 18.748C14.32 18.388 13.804 18.064 13.156 17.776C12.532 17.488 11.716 17.224 10.708 16.984V25.588C12.244 25.516 13.456 25.096 14.344 24.328C15.256 23.56 15.712 22.576 15.712 21.376Z" fill="#FFB93F"/>
</svg>
