<svg width="27" height="33" viewBox="0 0 27 33" fill="none" xmlns="http://www.w3.org/2000/svg">
<g id="Group">
<path id="Vector" d="M13.5 0.25C10.0746 0.249829 6.78754 1.60161 4.35327 4.01154C1.919 6.42146 0.534254 9.69476 0.5 13.12C0.5 22.025 11.9563 31.9375 12.4438 32.36C12.7381 32.6118 13.1127 32.7501 13.5 32.7501C13.8873 32.7501 14.2619 32.6118 14.5562 32.36C15.125 31.9375 26.5 22.025 26.5 13.12C26.4657 9.69476 25.081 6.42146 22.6467 4.01154C20.2125 1.60161 16.9254 0.249829 13.5 0.25ZM13.5 28.9313C10.7863 26.3475 3.75 19.1813 3.75 13.12C3.75 10.5341 4.77723 8.05419 6.60571 6.22571C8.43419 4.39723 10.9141 3.37 13.5 3.37C16.0859 3.37 18.5658 4.39723 20.3943 6.22571C22.2228 8.05419 23.25 10.5341 23.25 13.12C23.25 19.1325 16.2137 26.3475 13.5 28.9313Z" fill="#FFB93F"/>
<path id="Vector_2" d="M13.4999 6.75C12.375 6.75 11.2754 7.08357 10.3401 7.70852C9.40477 8.33347 8.67579 9.22173 8.24532 10.261C7.81484 11.3002 7.70221 12.4438 7.92166 13.5471C8.14112 14.6503 8.6828 15.6638 9.47821 16.4592C10.2736 17.2546 11.287 17.7963 12.3903 18.0157C13.4936 18.2352 14.6371 18.1225 15.6764 17.6921C16.7156 17.2616 17.6039 16.5326 18.2289 15.5973C18.8538 14.662 19.1874 13.5624 19.1874 12.4375C19.1874 10.9291 18.5882 9.48244 17.5216 8.41583C16.4549 7.34922 15.0083 6.75 13.4999 6.75ZM13.4999 14.875C13.0178 14.875 12.5465 14.732 12.1457 14.4642C11.7448 14.1964 11.4324 13.8157 11.2479 13.3703C11.0634 12.9249 11.0152 12.4348 11.1092 11.962C11.2033 11.4891 11.4354 11.0548 11.7763 10.7139C12.1172 10.373 12.5515 10.1409 13.0243 10.0468C13.4972 9.95278 13.9873 10.0011 14.4327 10.1855C14.8781 10.37 15.2588 10.6825 15.5266 11.0833C15.7944 11.4841 15.9374 11.9554 15.9374 12.4375C15.9374 13.084 15.6806 13.704 15.2235 14.1611C14.7663 14.6182 14.1463 14.875 13.4999 14.875Z" fill="#FFB93F"/>
</g>
</svg>
