<svg width="92" height="20" viewBox="0 0 92 20" fill="none" xmlns="http://www.w3.org/2000/svg">
<g id="Group 1">
<g id="&#240;&#159;&#166;&#134; icon &#34;star&#34;">
<path id="Vector" d="M31.5664 16.8047C31.4385 16.8052 31.3122 16.775 31.1983 16.7166L27.1172 14.58L23.036 16.7166C22.9035 16.7863 22.7541 16.8174 22.6048 16.8064C22.4555 16.7954 22.3122 16.7427 22.1913 16.6544C22.0705 16.566 21.9768 16.4455 21.921 16.3066C21.8652 16.1676 21.8495 16.0158 21.8757 15.8684L22.6759 11.3631L19.379 8.16224C19.2761 8.05959 19.2032 7.93087 19.1679 7.78989C19.1327 7.64891 19.1365 7.50099 19.179 7.36201C19.2253 7.21979 19.3107 7.09342 19.4252 6.99724C19.5398 6.90105 19.679 6.83891 19.8271 6.81786L24.3884 6.15367L26.397 2.04852C26.4625 1.91323 26.5648 1.79913 26.6922 1.71929C26.8196 1.63945 26.9669 1.59711 27.1172 1.59711C27.2675 1.59711 27.4148 1.63945 27.5422 1.71929C27.6695 1.79913 27.7719 1.91323 27.8374 2.04852L29.87 6.14567L34.4312 6.80986C34.5793 6.83091 34.7186 6.89305 34.8331 6.98923C34.9477 7.08542 35.033 7.21179 35.0794 7.35401C35.1219 7.49299 35.1257 7.6409 35.0904 7.78188C35.0552 7.92286 34.9822 8.05158 34.8794 8.15423L31.5824 11.3551L32.3827 15.8604C32.4112 16.0104 32.3963 16.1655 32.3396 16.3073C32.2828 16.4491 32.1867 16.5717 32.0626 16.6606C31.9177 16.7622 31.7432 16.8128 31.5664 16.8047Z" fill="#FFB93F"/>
</g>
<g id="&#240;&#159;&#166;&#134; icon &#34;star&#34;_2">
<path id="Vector_2" d="M50.7229 16.8047C50.5949 16.8052 50.4687 16.775 50.3548 16.7166L46.2737 14.58L42.1925 16.7166C42.06 16.7863 41.9106 16.8174 41.7613 16.8064C41.612 16.7954 41.4687 16.7427 41.3478 16.6544C41.227 16.566 41.1333 16.4455 41.0775 16.3066C41.0217 16.1676 41.006 16.0158 41.0322 15.8684L41.8324 11.3631L38.5355 8.16224C38.4326 8.05959 38.3597 7.93087 38.3244 7.78989C38.2892 7.64891 38.293 7.50099 38.3355 7.36201C38.3818 7.21979 38.4671 7.09342 38.5817 6.99724C38.6963 6.90105 38.8355 6.83891 38.9836 6.81786L43.5449 6.15367L45.5535 2.04852C45.619 1.91323 45.7213 1.79913 45.8487 1.71929C45.9761 1.63945 46.1233 1.59711 46.2737 1.59711C46.424 1.59711 46.5713 1.63945 46.6987 1.71929C46.826 1.79913 46.9284 1.91323 46.9939 2.04852L49.0264 6.14567L53.5877 6.80986C53.7358 6.83091 53.8751 6.89305 53.9896 6.98923C54.1042 7.08542 54.1895 7.21179 54.2359 7.35401C54.2784 7.49299 54.2822 7.6409 54.2469 7.78188C54.2117 7.92286 54.1387 8.05158 54.0359 8.15423L50.7389 11.3551L51.5392 15.8604C51.5677 16.0104 51.5528 16.1655 51.496 16.3073C51.4393 16.4491 51.3432 16.5717 51.2191 16.6606C51.0742 16.7622 50.8997 16.8128 50.7229 16.8047Z" fill="#FFB93F"/>
</g>
<g id="&#240;&#159;&#166;&#134; icon &#34;star&#34;_3">
<path id="Vector_3" d="M69.8793 16.8047C69.7513 16.8052 69.6251 16.775 69.5112 16.7166L65.43 14.58L61.3489 16.7166C61.2164 16.7863 61.067 16.8174 60.9176 16.8064C60.7683 16.7954 60.6251 16.7427 60.5042 16.6544C60.3833 16.566 60.2897 16.4455 60.2339 16.3066C60.1781 16.1676 60.1624 16.0158 60.1886 15.8684L60.9888 11.3631L57.6919 8.16224C57.589 8.05959 57.516 7.93087 57.4808 7.78989C57.4456 7.64891 57.4494 7.50099 57.4918 7.36201C57.5382 7.21979 57.6235 7.09342 57.7381 6.99724C57.8527 6.90105 57.9919 6.83891 58.14 6.81786L62.7013 6.15367L64.7098 2.04852C64.7754 1.91323 64.8777 1.79913 65.0051 1.71929C65.1324 1.63945 65.2797 1.59711 65.43 1.59711C65.5804 1.59711 65.7277 1.63945 65.855 1.71929C65.9824 1.79913 66.0847 1.91323 66.1503 2.04852L68.1828 6.14567L72.7441 6.80986C72.8922 6.83091 73.0314 6.89305 73.146 6.98923C73.2606 7.08542 73.3459 7.21179 73.3923 7.35401C73.4347 7.49299 73.4385 7.6409 73.4033 7.78188C73.3681 7.92286 73.2951 8.05158 73.1922 8.15423L69.8953 11.3551L70.6955 15.8604C70.7241 16.0104 70.7091 16.1655 70.6524 16.3073C70.5957 16.4491 70.4996 16.5717 70.3754 16.6606C70.2305 16.7622 70.0561 16.8128 69.8793 16.8047Z" fill="#FFB93F"/>
</g>
<g id="&#240;&#159;&#166;&#134; icon &#34;star&#34;_4">
<path id="Vector_4" d="M14.0519 16.8047C13.9239 16.8052 13.7977 16.775 13.6838 16.7166L9.60266 14.58L5.52151 16.7166C5.38899 16.7863 5.23957 16.8174 5.09025 16.8064C4.94093 16.7954 4.79769 16.7427 4.67682 16.6544C4.55594 16.566 4.46229 16.4455 4.40649 16.3066C4.35069 16.1676 4.335 16.0158 4.36119 15.8684L5.16141 11.3631L1.86449 8.16224C1.76162 8.05959 1.68865 7.93087 1.65341 7.78989C1.61816 7.64891 1.62197 7.50099 1.66443 7.36201C1.71081 7.21979 1.79613 7.09342 1.9107 6.99724C2.02527 6.90105 2.16451 6.83891 2.31261 6.81786L6.87389 6.15367L8.88245 2.04852C8.94798 1.91323 9.05029 1.79913 9.17767 1.71929C9.30504 1.63945 9.45233 1.59711 9.60266 1.59711C9.75298 1.59711 9.90027 1.63945 10.0276 1.71929C10.155 1.79913 10.2573 1.91323 10.3229 2.04852L12.3554 6.14567L16.9167 6.80986C17.0648 6.83091 17.204 6.89305 17.3186 6.98923C17.4332 7.08542 17.5185 7.21179 17.5649 7.35401C17.6073 7.49299 17.6112 7.6409 17.5759 7.78188C17.5407 7.92286 17.4677 8.05158 17.3648 8.15423L14.0679 11.3551L14.8681 15.8604C14.8967 16.0104 14.8817 16.1655 14.825 16.3073C14.7683 16.4491 14.6722 16.5717 14.548 16.6606C14.4031 16.7622 14.2287 16.8128 14.0519 16.8047Z" fill="#FFB93F"/>
</g>
<g id="&#240;&#159;&#166;&#134; icon &#34;star&#34;_5">
<path id="Vector_5" d="M86.8466 16.8047C86.7186 16.8052 86.5924 16.775 86.4785 16.7166L82.3973 14.58L78.3162 16.7166C78.1837 16.7863 78.0343 16.8174 77.8849 16.8064C77.7356 16.7954 77.5924 16.7427 77.4715 16.6544C77.3506 16.566 77.257 16.4455 77.2012 16.3066C77.1454 16.1676 77.1297 16.0158 77.1559 15.8684L77.9561 11.3631L74.6592 8.16224C74.5563 8.05959 74.4833 7.93087 74.4481 7.78989C74.4128 7.64891 74.4167 7.50099 74.4591 7.36201C74.5055 7.21979 74.5908 7.09342 74.7054 6.99724C74.8199 6.90105 74.9592 6.83891 75.1073 6.81786L79.6686 6.15367L81.6771 2.04852C81.7427 1.91323 81.845 1.79913 81.9723 1.71929C82.0997 1.63945 82.247 1.59711 82.3973 1.59711C82.5477 1.59711 82.6949 1.63945 82.8223 1.71929C82.9497 1.79913 83.052 1.91323 83.1175 2.04852L85.1501 6.14567L89.7114 6.80986C89.8595 6.83091 89.9987 6.89305 90.1133 6.98923C90.2279 7.08542 90.3132 7.21179 90.3596 7.35401C90.402 7.49299 90.4058 7.6409 90.3706 7.78188C90.3353 7.92286 90.2624 8.05158 90.1595 8.15423L86.8626 11.3551L87.6628 15.8604C87.6914 16.0104 87.6764 16.1655 87.6197 16.3073C87.563 16.4491 87.4669 16.5717 87.3427 16.6606C87.1978 16.7622 87.0233 16.8128 86.8466 16.8047Z" fill="#FFB93F"/>
</g>
</g>
</svg>
