<?xml version="1.0" encoding="UTF-8" standalone="no"?>
<!DOCTYPE svg PUBLIC "-//W3C//DTD SVG 1.1//EN" "http://www.w3.org/Graphics/SVG/1.1/DTD/svg11.dtd">
<svg xmlns="http://www.w3.org/2000/svg" version="1.1" viewBox="0.00 0.00 500.00 500.00">
<g stroke-width="2.00" fill="none" stroke-linecap="butt">
<path stroke="#8e9ba6" vector-effect="non-scaling-stroke" d="
  M 368.23 215.97
  L 368.75 207.82"
/>
<path stroke="#8e9ba6" vector-effect="non-scaling-stroke" d="
  M 350.02 182.26
  L 345.00 184.39
  Q 344.45 184.63 344.58 184.05
  L 349.17 162.47
  A 0.93 0.92 -3.5 0 1 349.78 161.79
  L 357.13 159.27
  Q 357.34 159.20 357.28 158.98
  L 357.20 158.71
  Q 357.13 158.47 356.89 158.54
  L 331.62 166.27
  A 1.71 1.69 -84.8 0 0 330.59 167.14
  Q 326.12 175.86 319.93 183.47
  Q 318.55 185.16 318.66 182.98
  Q 318.95 177.30 319.01 170.96
  C 319.03 169.38 319.32 167.99 318.34 166.68
  Q 314.04 160.91 309.43 155.56
  Q 308.87 154.91 309.72 154.79
  C 315.14 154.05 323.11 156.69 328.38 158.23
  Q 328.88 158.38 329.33 158.12
  L 355.11 143.30"
/>
<path stroke="#8e9ba6" vector-effect="non-scaling-stroke" d="
  M 281.13 124.33
  Q 277.74 126.04 272.43 123.13
  Q 270.15 121.88 268.95 121.68
  Q 267.01 121.34 265.03 121.71
  A 0.44 0.44 0.0 0 0 264.82 122.47
  L 281.10 136.62
  A 0.43 0.43 0.0 0 1 281.08 137.28
  L 270.20 145.66
  A 1.25 1.24 30.3 0 1 269.28 145.90
  L 260.34 144.56
  A 0.59 0.59 0.0 0 0 259.78 145.50
  Q 261.83 148.22 264.15 150.61
  C 266.06 152.59 265.90 155.04 266.01 157.57
  A 0.42 0.42 0.0 0 0 266.70 157.87
  C 269.30 155.65 270.32 153.23 271.89 150.30
  A 1.41 1.39 -86.8 0 1 272.60 149.66
  C 276.45 148.14 280.10 147.01 283.63 144.67
  A 0.41 0.41 0.0 0 1 284.27 145.02
  L 283.90 172.00
  A 0.30 0.30 0.0 0 0 284.40 172.22
  C 288.79 168.18 289.13 162.73 290.19 157.25
  C 290.54 155.43 294.62 154.28 296.18 153.62
  Q 297.47 153.07 296.87 151.80
  L 296.64 151.30
  A 1.43 1.42 65.3 0 0 294.77 150.60
  L 291.86 151.90
  A 0.37 0.37 0.0 0 1 291.35 151.48
  L 294.00 140.26
  A 1.05 1.03 -3.3 0 1 294.67 139.52
  Q 301.04 137.28 306.93 133.53"
/>
<path stroke="#8e9ba6" vector-effect="non-scaling-stroke" d="
  M 346.78 145.27
  Q 347.80 146.40 350.00 145.03
  Q 352.17 143.67 354.43 142.68"
/>
<path stroke="#8e9ba6" vector-effect="non-scaling-stroke" d="
  M 270.28 115.99
  Q 269.86 116.41 268.96 116.63
  Q 268.32 116.79 267.56 116.53
  C 243.55 108.19 218.04 103.31 193.17 110.44
  C 189.80 111.40 185.51 113.16 181.81 114.29
  Q 179.80 114.91 181.90 114.87
  C 200.60 114.59 219.29 121.35 234.85 131.40
  C 269.17 153.54 284.29 196.24 278.65 235.93
  Q 278.58 236.39 279.02 236.22
  Q 306.88 225.02 336.75 221.55
  Q 345.03 220.59 364.56 221.61"
/>
<path stroke="#8e9ba6" vector-effect="non-scaling-stroke" d="
  M 403.58 237.58
  Q 401.36 236.74 397.25 235.97
  C 391.25 234.86 385.07 233.55 379.19 233.12
  C 358.13 231.57 335.89 232.56 315.50 237.26
  Q 309.37 238.67 303.34 240.26
  Q 277.96 246.95 256.53 262.05
  C 248.68 267.57 242.60 274.75 236.04 282.32
  C 228.69 290.80 222.56 302.03 216.77 313.22
  Q 208.05 330.08 197.26 341.99
  Q 192.35 347.42 181.55 354.76"
/>
<path stroke="#8e9ba6" vector-effect="non-scaling-stroke" d="
  M 153.13 341.85
  Q 162.64 340.70 168.75 338.73
  C 192.14 331.20 202.09 300.04 179.27 284.89
  C 176.54 283.07 175.78 282.49 173.03 281.73
  C 162.28 278.75 150.42 279.57 142.10 287.04
  C 133.30 294.93 130.12 308.28 135.17 319.32
  A 0.32 0.31 70.8 0 0 135.53 319.50
  Q 145.26 317.26 155.20 316.31
  Q 157.88 316.05 155.28 315.36
  C 148.57 313.59 146.18 305.49 150.36 299.89
  C 155.95 292.38 166.28 291.47 173.01 298.46
  C 179.09 304.76 177.77 313.84 171.88 319.54
  C 165.31 325.90 152.59 327.11 144.12 328.80"
/>
<path stroke="#8e9ba6" vector-effect="non-scaling-stroke" d="
  M 285.77 125.65
  Q 283.32 125.80 281.90 127.26
  Q 281.47 127.71 282.02 127.99
  L 289.20 131.66
  Q 289.64 131.89 290.10 131.72
  Q 291.78 131.10 293.36 129.62"
/>
<path stroke="#8e9ba6" vector-effect="non-scaling-stroke" d="
  M 394.92 250.77
  Q 384.63 248.65 377.25 248.23
  Q 361.96 247.36 342.49 248.43
  Q 326.52 249.31 305.07 255.93
  Q 299.02 257.79 293.02 259.78
  C 282.75 263.19 274.00 268.46 265.58 274.85
  C 262.84 276.92 260.26 279.57 257.64 281.99
  Q 254.32 285.06 252.05 287.72
  Q 243.93 297.24 240.69 303.43
  Q 232.68 318.76 223.94 333.70
  Q 213.20 352.08 195.73 364.26
  Q 194.66 365.00 193.97 364.94"
/>
<path stroke="#8e9ba6" vector-effect="non-scaling-stroke" d="
  M 397.03 267.11
  Q 395.43 265.88 393.01 265.54
  C 356.98 260.36 319.58 263.87 286.85 278.85
  Q 275.14 284.21 266.16 291.35
  C 261.46 295.09 256.99 300.40 252.56 305.06
  Q 249.26 308.54 242.92 318.99
  C 239.57 324.50 235.75 332.67 231.48 339.20
  Q 231.37 339.37 231.54 339.49
  L 231.54 339.49
  Q 231.70 339.61 231.83 339.45
  C 235.73 334.60 239.43 329.26 243.96 324.96
  Q 252.50 316.86 261.43 309.20
  Q 265.70 305.53 267.68 304.42
  C 275.52 300.03 283.64 295.16 291.34 291.72
  Q 306.98 284.75 320.65 282.11
  C 343.45 277.72 369.35 277.38 392.25 281.26
  Q 393.04 281.39 393.94 281.16"
/>
<path stroke="#8e9ba6" vector-effect="non-scaling-stroke" d="
  M 217.46 134.30
  C 207.16 128.88 194.93 126.04 183.53 125.74
  Q 182.84 125.72 183.48 125.98
  Q 197.81 131.90 209.19 142.45
  A 0.60 0.60 0.0 0 0 210.02 142.44
  L 217.57 135.12
  A 0.51 0.51 0.0 0 0 217.46 134.30"
/>
<path stroke="#8e9ba6" vector-effect="non-scaling-stroke" d="
  M 189.96 156.15
  Q 195.69 153.37 200.32 149.06
  A 0.45 0.45 0.0 0 0 200.32 148.40
  Q 192.62 141.20 183.47 136.63
  C 181.62 135.70 179.47 135.18 177.44 134.32
  C 171.24 131.70 165.43 130.33 158.66 130.34
  A 0.26 0.26 0.0 0 0 158.45 130.75
  C 165.13 140.72 169.64 152.67 174.10 163.74
  A 0.33 0.32 -24.1 0 0 174.55 163.91
  C 179.71 161.32 184.74 158.68 189.96 156.15"
/>
<path stroke="#5c8291" vector-effect="non-scaling-stroke" d="
  M 160.98 159.14
  L 156.88 149.90"
/>
<path stroke="#8e9ba6" vector-effect="non-scaling-stroke" d="
  M 156.88 149.90
  Q 156.14 146.67 154.72 144.43"
/>
<path stroke="#5c8291" vector-effect="non-scaling-stroke" d="
  M 154.72 144.43
  L 151.75 138.88"
/>
<path stroke="#8e9ba6" vector-effect="non-scaling-stroke" d="
  M 151.75 138.88
  L 149.39 134.99
  A 0.65 0.65 0.0 0 0 148.38 134.86
  C 141.27 141.77 137.05 151.36 134.94 160.90
  C 134.00 165.16 132.61 169.51 132.49 173.84
  Q 132.47 174.61 133.24 174.57
  Q 149.06 173.77 163.79 167.97
  A 0.67 0.67 0.0 0 0 164.16 167.10
  L 160.98 159.14"
/>
<path stroke="#cce5e9" vector-effect="non-scaling-stroke" d="
  M 151.75 138.88
  Q 146.68 142.23 142.54 147.30
  Q 138.99 151.67 138.08 157.45
  A 0.60 0.59 84.0 0 0 138.88 158.10
  Q 149.42 154.05 154.72 144.43"
/>
<path stroke="#cce5e9" vector-effect="non-scaling-stroke" d="
  M 156.88 149.90
  C 152.53 155.86 144.05 160.27 137.52 163.09
  C 135.10 164.13 135.30 169.25 135.22 171.33
  A 1.18 1.18 0.0 0 0 136.60 172.53
  C 142.83 171.50 150.49 170.01 155.07 165.57
  Q 158.07 162.65 160.98 159.14"
/>
<path stroke="#8e9ba6" vector-effect="non-scaling-stroke" d="
  M 227.43 168.30
  C 233.02 179.40 237.74 191.03 240.08 203.01
  Q 240.18 203.54 240.70 203.40
  Q 250.64 200.76 260.52 197.90
  C 262.11 197.44 263.97 197.29 265.66 196.88
  A 0.54 0.54 0.0 0 0 266.06 196.24
  Q 262.23 177.96 251.93 162.93
  C 248.10 157.34 242.35 152.10 237.41 146.83
  Q 234.93 144.18 227.48 139.46
  Q 227.07 139.20 226.74 139.56
  L 217.00 149.98
  Q 216.60 150.41 216.87 150.93
  Q 218.22 153.52 218.78 154.26
  Q 223.51 160.53 227.43 168.30"
/>
<path stroke="#527688" vector-effect="non-scaling-stroke" d="
  M 122.65 170.65
  L 123.62 165.41"
/>
<path stroke="#7b8e9b" vector-effect="non-scaling-stroke" d="
  M 123.62 165.41
  Q 125.18 158.12 127.66 153.26
  A 0.46 0.46 0.0 0 0 126.87 152.80
  C 125.28 155.28 122.56 157.57 120.86 159.53
  C 117.94 162.90 115.55 165.83 113.19 169.64
  Q 112.77 170.33 113.52 170.62
  L 121.52 173.73
  Q 122.19 173.99 122.29 173.27
  L 122.65 170.65"
/>
<path stroke="#aeccd5" vector-effect="non-scaling-stroke" d="
  M 123.62 165.41
  L 117.12 167.93
  Q 115.90 168.40 117.14 168.81
  L 122.65 170.65"
/>
<path stroke="#5c8291" vector-effect="non-scaling-stroke" d="
  M 197.19 215.59
  L 208.81 212.27"
/>
<path stroke="#8e9ba6" vector-effect="non-scaling-stroke" d="
  M 208.81 212.27
  L 229.53 206.55
  Q 230.08 206.40 229.95 205.85
  L 228.71 200.67"
/>
<path stroke="#5c8291" vector-effect="non-scaling-stroke" d="
  M 228.71 200.67
  L 225.40 190.75"
/>
<path stroke="#8e9ba6" vector-effect="non-scaling-stroke" d="
  M 225.40 190.75
  L 219.27 176.24"
/>
<path stroke="#5c8291" vector-effect="non-scaling-stroke" d="
  M 219.27 176.24
  L 217.69 172.21"
/>
<path stroke="#8e9ba6" vector-effect="non-scaling-stroke" d="
  M 217.69 172.21
  L 208.71 157.09
  A 1.34 1.34 0.0 0 0 206.75 156.70
  C 197.64 163.64 188.98 168.78 178.32 172.59
  A 0.88 0.88 0.0 0 0 177.80 173.75
  Q 186.19 194.66 192.33 216.35
  Q 192.50 216.94 193.08 216.77
  L 197.19 215.59"
/>
<path stroke="#cce5e9" vector-effect="non-scaling-stroke" d="
  M 217.69 172.21
  Q 215.17 174.81 212.44 176.68
  C 205.04 181.76 197.98 187.16 190.34 191.84
  A 1.10 1.10 0.0 0 0 189.86 193.11
  L 193.79 205.50
  A 0.69 0.69 0.0 0 0 194.81 205.89
  C 203.58 200.50 212.64 195.69 217.51 186.26
  Q 219.56 182.27 219.27 176.24"
/>
<path stroke="#cce5e9" vector-effect="non-scaling-stroke" d="
  M 225.40 190.75
  Q 222.89 192.97 220.42 195.18
  C 213.47 201.43 204.46 206.42 196.06 210.43
  Q 195.61 210.64 195.59 211.14
  Q 195.49 214.02 197.19 215.59"
/>
<path stroke="#cce5e9" vector-effect="non-scaling-stroke" d="
  M 228.71 200.67
  Q 219.67 207.43 208.81 212.27"
/>
<path stroke="#5c8291" vector-effect="non-scaling-stroke" d="
  M 161.25 178.91
  C 151.94 181.63 142.75 182.90 133.21 184.05"
/>
<path stroke="#8e9ba6" vector-effect="non-scaling-stroke" d="
  M 133.21 184.05
  Q 132.71 183.92 132.11 183.98
  Q 131.64 184.03 131.60 184.50
  Q 130.64 195.29 132.34 206.15"
/>
<path stroke="#5c8291" vector-effect="non-scaling-stroke" d="
  M 132.34 206.15
  Q 132.08 208.73 133.01 212.39"
/>
<path stroke="#8e9ba6" vector-effect="non-scaling-stroke" d="
  M 133.01 212.39
  L 133.44 215.97"
/>
<path stroke="#5c8291" vector-effect="non-scaling-stroke" d="
  M 133.44 215.97
  L 135.31 225.52"
/>
<path stroke="#8e9ba6" vector-effect="non-scaling-stroke" d="
  M 135.31 225.52
  L 136.02 228.88"
/>
<path stroke="#5c8291" vector-effect="non-scaling-stroke" d="
  M 136.02 228.88
  Q 135.87 230.35 136.39 231.44
  Q 136.58 231.83 137.00 231.72
  L 181.52 219.41
  A 0.48 0.47 -16.2 0 0 181.85 218.82
  L 179.67 211.45"
/>
<path stroke="#8e9ba6" vector-effect="non-scaling-stroke" d="
  M 179.67 211.45
  L 178.05 206.29"
/>
<path stroke="#5c8291" vector-effect="non-scaling-stroke" d="
  M 178.05 206.29
  L 175.46 196.62"
/>
<path stroke="#8e9ba6" vector-effect="non-scaling-stroke" d="
  M 175.46 196.62
  L 173.06 190.03"
/>
<path stroke="#5c8291" vector-effect="non-scaling-stroke" d="
  M 173.06 190.03
  L 169.88 181.25"
/>
<path stroke="#8e9ba6" vector-effect="non-scaling-stroke" d="
  M 169.88 181.25
  L 168.36 177.48
  Q 168.13 176.90 167.54 177.08
  L 161.25 178.91"
/>
<path stroke="#cce5e9" vector-effect="non-scaling-stroke" d="
  M 169.88 181.25
  C 159.28 188.07 146.12 192.79 134.12 196.00
  A 1.99 1.98 83.5 0 0 132.65 197.85
  L 132.34 206.15"
/>
<path stroke="#cce5e9" vector-effect="non-scaling-stroke" d="
  M 133.21 184.05
  Q 132.50 187.91 133.06 191.67
  Q 133.14 192.18 133.63 192.00
  Q 144.90 187.83 155.64 182.63
  Q 158.59 181.20 161.25 178.91"
/>
<path stroke="#cce5e9" vector-effect="non-scaling-stroke" d="
  M 173.06 190.03
  C 168.14 194.96 163.36 197.13 158.15 200.35
  Q 153.30 203.36 151.90 204.07
  Q 142.77 208.69 133.01 212.39"
/>
<path stroke="#cce5e9" vector-effect="non-scaling-stroke" d="
  M 175.46 196.62
  Q 165.82 203.28 156.25 207.52
  Q 146.59 211.81 133.44 215.97"
/>
<path stroke="#cce5e9" vector-effect="non-scaling-stroke" d="
  M 178.05 206.29
  Q 176.02 208.22 174.46 209.17
  Q 166.43 214.08 156.80 217.66
  Q 146.02 221.66 135.31 225.52"
/>
<path stroke="#cce5e9" vector-effect="non-scaling-stroke" d="
  M 179.67 211.45
  C 171.11 216.78 165.26 218.27 155.77 222.22
  Q 151.35 224.06 136.02 228.88"
/>
<path stroke="#7b8e9b" vector-effect="non-scaling-stroke" d="
  M 99.42 195.21
  L 97.52 199.55"
/>
<path stroke="#527688" vector-effect="non-scaling-stroke" d="
  M 97.52 199.55
  L 94.22 210.73"
/>
<path stroke="#7b8e9b" vector-effect="non-scaling-stroke" d="
  M 94.22 210.73
  L 93.64 213.49"
/>
<path stroke="#3f6276" vector-effect="non-scaling-stroke" d="
  M 93.64 213.49
  Q 90.63 225.71 90.11 238.92"
/>
<path stroke="#7b8e9b" vector-effect="non-scaling-stroke" d="
  M 90.11 238.92
  L 89.97 241.98"
/>
<path stroke="#3f6276" vector-effect="non-scaling-stroke" d="
  M 89.97 241.98
  L 89.81 249.61
  Q 89.80 250.17 90.29 249.89
  Q 99.90 244.26 110.56 240.63
  Q 118.16 238.04 126.14 235.36
  A 0.55 0.54 74.9 0 0 126.50 234.72
  L 125.76 231.64"
/>
<path stroke="#7b8e9b" vector-effect="non-scaling-stroke" d="
  M 125.76 231.64
  L 124.68 227.78"
/>
<path stroke="#527688" vector-effect="non-scaling-stroke" d="
  M 124.68 227.78
  L 122.62 217.78"
/>
<path stroke="#8e9ba6" vector-effect="non-scaling-stroke" d="
  M 122.62 217.78
  Q 122.33 217.53 122.51 216.85"
/>
<path stroke="#527688" vector-effect="non-scaling-stroke" d="
  M 122.51 216.85
  Q 120.79 207.38 120.67 197.90"
/>
<path stroke="#7b8e9b" vector-effect="non-scaling-stroke" d="
  M 120.67 197.90
  L 120.55 194.11"
/>
<path stroke="#527688" vector-effect="non-scaling-stroke" d="
  M 120.55 194.11
  L 120.96 183.15
  A 0.61 0.61 0.0 0 0 120.48 182.53
  Q 114.16 181.17 108.33 178.37
  Q 107.70 178.07 107.39 178.70
  L 99.42 195.21"
/>
<path stroke="#aeccd5" vector-effect="non-scaling-stroke" d="
  M 120.55 194.11
  Q 110.09 196.59 99.42 195.21"
/>
<path stroke="#aeccd5" vector-effect="non-scaling-stroke" d="
  M 120.67 197.90
  Q 109.20 200.34 97.52 199.55"
/>
<path stroke="#c2d9e0" vector-effect="non-scaling-stroke" d="
  M 122.51 216.85
  L 108.65 220.95
  Q 106.84 221.48 108.71 221.20
  Q 115.39 220.20 121.98 218.69
  A 0.67 0.67 0.0 0 0 122.48 218.24
  L 122.62 217.78"
/>
<path stroke="#aeccd5" vector-effect="non-scaling-stroke" d="
  M 124.68 227.78
  Q 113.68 232.19 102.29 235.08"
/>
<path stroke="#73a0b0" vector-effect="non-scaling-stroke" d="
  M 102.29 235.08
  Q 102.04 234.52 103.35 234.22
  Q 104.01 234.06 103.85 233.40
  L 102.45 227.62
  Q 102.36 227.22 102.43 226.82
  Q 102.54 226.26 102.10 225.86
  Q 101.81 225.58 101.64 225.21
  L 99.76 221.17
  Q 99.54 220.69 99.59 220.17
  Q 99.96 215.87 97.82 213.43"
/>
<path stroke="#aeccd5" vector-effect="non-scaling-stroke" d="
  M 97.82 213.43
  L 119.36 209.38
  A 0.28 0.27 80.0 0 0 119.57 209.07
  L 119.53 208.82
  Q 119.52 208.75 119.45 208.76
  Q 117.11 208.92 112.26 209.79
  Q 104.99 211.10 94.22 210.73"
/>
<path stroke="#9cb8c3" vector-effect="non-scaling-stroke" d="
  M 97.82 213.43
  L 93.64 213.49"
/>
<path stroke="#9cb8c3" vector-effect="non-scaling-stroke" d="
  M 102.29 235.08
  L 90.11 238.92"
/>
<path stroke="#9cb8c3" vector-effect="non-scaling-stroke" d="
  M 125.76 231.64
  Q 119.14 233.73 112.58 235.91
  C 105.23 238.36 97.55 239.93 89.97 241.98"
/>
<path stroke="#8e9ba6" vector-effect="non-scaling-stroke" d="
  M 242.06 213.78
  C 244.84 227.40 245.88 241.24 244.46 255.07
  A 0.25 0.24 76.3 0 0 244.84 255.31
  L 266.04 241.24
  A 1.01 0.97 -12.1 0 0 266.46 240.62
  Q 270.02 223.99 267.94 207.11
  A 0.63 0.63 0.0 0 0 267.14 206.58
  L 242.26 213.45
  A 0.29 0.28 76.8 0 0 242.06 213.78"
/>
<path stroke="#527688" vector-effect="non-scaling-stroke" d="
  M 202.56 264.28
  L 203.14 268.78
  Q 203.21 269.33 203.76 269.26
  Q 217.89 267.44 231.66 263.80
  C 234.31 263.10 233.90 258.18 234.01 255.94"
/>
<path stroke="#8e9ba6" vector-effect="non-scaling-stroke" d="
  M 234.01 255.94
  L 234.42 248.96"
/>
<path stroke="#5c8291" vector-effect="non-scaling-stroke" d="
  M 234.42 248.96
  Q 235.12 233.82 232.69 219.24"
/>
<path stroke="#8e9ba6" vector-effect="non-scaling-stroke" d="
  M 232.69 219.24
  L 232.05 216.86
  Q 231.88 216.22 231.24 216.39
  L 195.27 225.91
  A 0.37 0.37 0.0 0 0 195.01 226.33
  L 202.56 264.28"
/>
<path stroke="#cce5e9" vector-effect="non-scaling-stroke" d="
  M 232.69 219.24
  Q 227.10 221.17 221.60 223.21
  C 214.40 225.87 207.69 227.85 200.63 229.94
  Q 200.22 230.07 200.31 230.49
  L 203.09 242.69
  A 0.63 0.63 0.0 0 0 203.99 243.11
  Q 208.13 240.94 212.52 239.35
  C 216.02 238.08 218.74 236.35 221.90 234.64
  Q 222.02 234.57 222.10 234.69
  L 222.10 234.70
  Q 222.17 234.82 222.06 234.90
  C 219.31 236.86 216.88 238.47 213.58 239.79
  Q 208.67 241.76 203.81 244.10
  Q 203.37 244.31 203.44 244.80
  L 205.44 257.52
  Q 205.57 258.34 206.38 258.17
  Q 221.19 255.14 234.42 248.96"
/>
<path stroke="#c2d9e0" vector-effect="non-scaling-stroke" d="
  M 234.01 255.94
  Q 230.16 257.29 226.55 258.67
  Q 214.88 263.14 202.56 264.28"
/>
<path stroke="#8e9ba6" vector-effect="non-scaling-stroke" d="
  M 141.04 245.74
  L 142.34 249.49"
/>
<path stroke="#527688" vector-effect="non-scaling-stroke" d="
  M 142.34 249.49
  L 147.61 261.48"
/>
<path stroke="#8e9ba6" vector-effect="non-scaling-stroke" d="
  M 147.61 261.48
  L 148.43 263.02"
/>
<path stroke="#527688" vector-effect="non-scaling-stroke" d="
  M 148.43 263.02
  L 152.14 270.44
  Q 152.37 270.90 152.89 270.84
  L 163.51 269.67"
/>
<path stroke="#8e9ba6" vector-effect="non-scaling-stroke" d="
  M 163.51 269.67
  L 174.90 271.16"
/>
<path stroke="#527688" vector-effect="non-scaling-stroke" d="
  M 174.90 271.16
  L 180.75 274.31
  Q 181.18 274.54 181.66 274.44
  L 192.62 272.12
  A 0.57 0.57 0.0 0 0 193.07 271.48
  L 192.33 266.86"
/>
<path stroke="#8e9ba6" vector-effect="non-scaling-stroke" d="
  M 192.33 266.86
  L 191.18 260.29"
/>
<path stroke="#527688" vector-effect="non-scaling-stroke" d="
  M 191.18 260.29
  L 188.94 248.67"
/>
<path stroke="#8e9ba6" vector-effect="non-scaling-stroke" d="
  M 188.94 248.67
  Q 188.90 248.26 188.86 247.84"
/>
<path stroke="#527688" vector-effect="non-scaling-stroke" d="
  M 188.86 247.84
  L 186.65 237.17"
/>
<path stroke="#8e9ba6" vector-effect="non-scaling-stroke" d="
  M 186.65 237.17
  L 185.56 233.06"
/>
<path stroke="#527688" vector-effect="non-scaling-stroke" d="
  M 185.56 233.06
  L 184.80 229.58
  A 0.81 0.81 0.0 0 0 183.79 228.98
  C 173.54 231.86 163.26 234.53 153.02 237.44
  Q 147.02 239.14 140.30 240.32
  Q 139.09 240.53 139.52 241.67
  L 141.04 245.74"
/>
<path stroke="#c2d9e0" vector-effect="non-scaling-stroke" d="
  M 185.56 233.06
  Q 177.38 237.06 168.81 239.13
  Q 158.94 241.51 158.77 241.56
  Q 150.01 243.91 141.04 245.74"
/>
<path stroke="#c2d9e0" vector-effect="non-scaling-stroke" d="
  M 186.65 237.17
  C 183.22 239.03 178.58 239.87 175.99 240.69
  Q 159.52 245.95 142.34 249.49"
/>
<path stroke="#c2d9e0" vector-effect="non-scaling-stroke" d="
  M 188.86 247.84
  C 183.31 250.00 177.73 252.51 172.41 254.28
  C 164.16 257.01 156.14 259.65 147.61 261.48"
/>
<path stroke="#c2d9e0" vector-effect="non-scaling-stroke" d="
  M 188.94 248.67
  Q 176.25 254.74 162.75 259.20
  C 159.06 260.42 153.20 261.20 148.43 263.02"
/>
<path stroke="#c2d9e0" vector-effect="non-scaling-stroke" d="
  M 191.18 260.29
  Q 172.80 265.31 162.99 268.43
  Q 162.67 268.54 162.40 268.97
  Q 162.16 269.38 162.62 269.48
  L 163.51 269.67"
/>
<path stroke="#c2d9e0" vector-effect="non-scaling-stroke" d="
  M 192.33 266.86
  L 174.90 271.16"
/>
<path stroke="#7b8e9b" vector-effect="non-scaling-stroke" d="
  M 106.84 252.58
  L 95.54 257.84"
/>
<path stroke="#3f6276" vector-effect="non-scaling-stroke" d="
  M 95.54 257.84
  L 90.67 260.48
  Q 90.19 260.74 90.26 261.27
  L 92.38 276.98"
/>
<path stroke="#7b8e9b" vector-effect="non-scaling-stroke" d="
  M 92.38 276.98
  Q 92.59 277.05 92.65 278.34"
/>
<path stroke="#3f6276" vector-effect="non-scaling-stroke" d="
  M 92.65 278.34
  L 94.29 287.23"
/>
<path stroke="#7b8e9b" vector-effect="non-scaling-stroke" d="
  M 94.29 287.23
  L 95.50 291.10"
/>
<path stroke="#3f6276" vector-effect="non-scaling-stroke" d="
  M 95.50 291.10
  Q 97.02 298.05 100.53 304.59
  Q 100.81 305.10 101.33 304.87
  L 123.20 295.54
  A 3.26 3.25 -85.4 0 0 124.67 294.28
  L 131.77 282.77"
/>
<path stroke="#7b8e9b" vector-effect="non-scaling-stroke" d="
  M 131.77 282.77
  Q 134.15 281.40 137.06 278.57
  Q 138.30 277.35 141.86 275.58
  Q 142.33 275.35 142.20 274.85
  Q 142.08 274.36 141.74 273.84"
/>
<path stroke="#527688" vector-effect="non-scaling-stroke" d="
  M 141.74 273.84
  L 137.49 265.37"
/>
<path stroke="#7b8e9b" vector-effect="non-scaling-stroke" d="
  M 137.49 265.37
  L 136.97 264.34"
/>
<path stroke="#527688" vector-effect="non-scaling-stroke" d="
  M 136.97 264.34
  L 132.26 252.22"
/>
<path stroke="#7b8e9b" vector-effect="non-scaling-stroke" d="
  M 132.26 252.22
  L 130.55 247.80"
/>
<path stroke="#527688" vector-effect="non-scaling-stroke" d="
  M 130.55 247.80
  Q 130.24 245.92 129.42 244.54
  Q 129.16 244.09 128.66 244.24
  Q 117.68 247.53 106.84 252.58"
/>
<path stroke="#aeccd5" vector-effect="non-scaling-stroke" d="
  M 130.55 247.80
  Q 127.30 249.01 123.99 249.72
  Q 115.68 251.49 106.84 252.58"
/>
<path stroke="#aeccd5" vector-effect="non-scaling-stroke" d="
  M 132.26 252.22
  L 104.31 257.31"
/>
<path stroke="#9cb8c3" vector-effect="non-scaling-stroke" d="
  M 104.31 257.31
  L 95.54 257.84"
/>
<path stroke="#aeccd5" vector-effect="non-scaling-stroke" d="
  M 136.97 264.34
  L 112.62 271.51"
/>
<path stroke="#73a0b0" vector-effect="non-scaling-stroke" d="
  M 112.62 271.51
  Q 111.97 270.08 109.30 270.38
  Q 108.63 270.46 108.80 269.81
  Q 109.10 268.71 108.72 267.73
  Q 108.55 267.27 108.87 266.91
  Q 109.34 266.38 109.00 265.75
  A 0.14 0.14 0.0 0 0 108.75 265.75
  Q 108.69 265.87 108.63 265.99
  Q 108.58 266.10 108.50 266.02
  Q 107.75 265.32 108.31 264.12
  A 1.99 1.98 28.6 0 0 107.57 261.62
  Q 106.46 260.92 106.64 259.76
  Q 106.73 259.21 106.29 258.87
  L 104.31 257.31"
/>
<path stroke="#9cb8c3" vector-effect="non-scaling-stroke" d="
  M 112.62 271.51
  Q 103.41 273.74 94.24 275.40
  Q 92.73 275.67 92.38 276.98"
/>
<path stroke="#aeccd5" vector-effect="non-scaling-stroke" d="
  M 137.49 265.37
  L 120.26 271.29"
/>
<path stroke="#9cb8c3" vector-effect="non-scaling-stroke" d="
  M 120.26 271.29
  Q 106.68 276.04 92.65 278.34"
/>
<path stroke="#aeccd5" vector-effect="non-scaling-stroke" d="
  M 141.74 273.84
  Q 132.91 278.26 123.86 281.23"
/>
<path stroke="#73a0b0" vector-effect="non-scaling-stroke" d="
  M 123.86 281.23
  Q 123.96 280.62 123.66 280.44
  Q 123.59 280.40 123.33 280.40
  Q 123.10 280.40 122.96 280.22
  Q 122.89 280.12 123.01 280.12
  Q 123.17 280.12 123.35 280.13
  Q 123.49 280.13 123.47 279.99
  L 122.67 275.38
  A 0.82 0.75 24.2 0 0 122.52 275.03
  Q 121.76 273.98 121.96 272.74
  Q 122.03 272.25 121.60 272.02
  L 120.26 271.29"
/>
<path stroke="#9cb8c3" vector-effect="non-scaling-stroke" d="
  M 123.86 281.23
  C 116.89 282.84 110.23 284.84 103.10 285.85
  Q 98.75 286.46 94.29 287.23"
/>
<path stroke="#9cb8c3" vector-effect="non-scaling-stroke" d="
  M 131.77 282.77
  Q 113.48 288.66 95.50 291.10"
/>
<path stroke="#527688" vector-effect="non-scaling-stroke" d="
  M 224.79 275.62
  L 204.89 278.65
  Q 204.40 278.73 204.46 279.21
  Q 206.04 292.29 205.97 305.47
  Q 205.97 306.40 206.47 305.62
  Q 212.58 296.17 218.30 286.46
  C 220.31 283.05 223.18 279.90 225.33 276.44
  Q 225.95 275.44 224.79 275.62"
/>
<path stroke="#3f6276" vector-effect="non-scaling-stroke" d="
  M 110.35 324.32
  L 123.29 321.77
  A 0.97 0.97 0.0 0 0 124.01 320.49
  Q 121.56 313.66 121.97 306.40
  A 0.71 0.70 -11.6 0 0 120.95 305.73
  L 105.24 313.49
  A 0.93 0.93 0.0 0 0 104.82 314.75
  L 109.46 323.89
  A 0.82 0.82 0.0 0 0 110.35 324.32"
/>
<path stroke="#afc5ce" vector-effect="non-scaling-stroke" d="
  M 291.52 203.41
  Q 301.75 198.96 312.50 195.29
  Q 315.35 194.32 315.66 191.12
  A 0.86 0.85 20.9 0 0 315.31 190.34
  C 313.46 188.93 311.67 189.08 309.54 190.22
  C 303.32 193.56 297.42 196.79 290.76 199.16
  Q 289.24 199.70 289.55 201.27
  L 289.78 202.49
  Q 290.08 204.03 291.52 203.41"
/>
<path stroke="#afc5ce" vector-effect="non-scaling-stroke" d="
  M 310.15 221.02
  Q 314.03 219.41 316.84 218.52
  C 325.86 215.67 334.49 211.76 343.25 208.21
  Q 346.59 206.86 347.20 202.80
  Q 347.26 202.40 346.90 202.21
  Q 344.38 200.90 342.95 201.61
  Q 337.58 204.31 332.07 206.71
  C 324.59 209.96 317.14 213.94 309.49 217.02
  Q 308.17 217.54 308.32 218.95
  L 308.43 220.00
  Q 308.61 221.66 310.15 221.02"
/>
<path stroke="#cce5e9" vector-effect="non-scaling-stroke" d="
  M 176.17 137.46
  C 172.74 135.74 169.77 135.19 166.03 135.11
  Q 165.46 135.10 165.62 135.65
  C 166.69 139.40 168.79 142.84 170.42 146.34
  A 0.73 0.73 0.0 0 0 171.68 146.45
  L 176.64 139.31
  A 1.26 1.26 0.0 0 0 176.17 137.46"
/>
<path stroke="#cce5e9" vector-effect="non-scaling-stroke" d="
  M 192.38 148.35
  A 1.26 1.26 0.0 0 0 192.25 146.45
  Q 186.95 142.42 180.77 139.84
  A 0.62 0.61 22.1 0 0 179.96 140.18
  Q 177.86 145.43 173.69 149.24
  A 2.58 2.57 56.6 0 0 173.09 152.21
  L 176.33 159.23
  A 0.87 0.87 0.0 0 0 177.62 159.58
  C 180.38 157.67 183.56 156.23 185.96 154.22
  Q 189.06 151.63 192.38 148.35"
/>
<path stroke="#cce5e9" vector-effect="non-scaling-stroke" d="
  M 246.36 174.68
  L 239.48 179.76
  Q 239.10 180.04 239.11 180.50
  C 239.17 185.17 241.01 191.12 242.18 195.70
  A 0.70 0.69 -20.1 0 0 243.16 196.15
  L 256.72 189.59
  A 2.04 2.03 67.8 0 0 257.76 187.10
  Q 252.15 170.73 241.13 157.32
  C 238.20 153.75 235.86 150.34 232.48 147.16
  Q 231.44 146.18 230.43 147.19
  L 225.76 151.83
  A 1.77 1.76 49.4 0 0 225.59 154.13
  Q 228.25 157.72 230.53 162.02
  C 230.85 162.63 231.62 163.04 231.99 163.80
  Q 235.46 170.97 238.04 178.44
  A 0.85 0.85 0.0 0 0 239.34 178.86
  L 246.00 174.17
  A 0.31 0.31 0.0 0 1 246.36 174.68"
/>
<path stroke="#cce5e9" vector-effect="non-scaling-stroke" d="
  M 239.3288 157.7439
  A 0.53 0.53 0.0 0 0 238.5834 157.6656
  L 232.8170 162.3351
  A 0.53 0.53 0.0 0 0 232.7386 163.0805
  L 232.7512 163.0961
  A 0.53 0.53 0.0 0 0 233.4966 163.1744
  L 239.2630 158.5049
  A 0.53 0.53 0.0 0 0 239.3414 157.7595
  L 239.3288 157.7439"
/>
<path stroke="#cce5e9" vector-effect="non-scaling-stroke" d="
  M 216.11 170.83
  L 211.89 163.92
  A 1.20 1.20 0.0 0 0 210.20 163.54
  Q 203.70 167.85 196.89 171.74
  C 193.13 173.89 188.94 175.51 184.88 177.30
  A 1.04 1.04 0.0 0 0 184.32 178.63
  L 188.79 190.28
  A 0.71 0.70 -26.1 0 0 189.82 190.63
  Q 201.46 183.31 212.63 175.13
  Q 213.94 174.17 215.99 171.95
  Q 216.47 171.43 216.11 170.83"
/>
<path stroke="#cce5e9" vector-effect="non-scaling-stroke" d="
  M 256.87 238.87
  C 258.99 237.71 260.08 237.95 260.52 235.16
  C 261.79 227.13 263.19 218.37 262.63 210.30
  A 0.45 0.45 0.0 0 0 262.03 209.90
  L 247.85 214.89
  A 1.25 1.23 77.6 0 0 247.03 216.19
  L 249.53 240.05
  A 1.39 1.39 0.0 0 0 251.32 241.24
  Q 254.12 240.39 256.87 238.87"
/>
<path stroke="#3f6276" vector-effect="non-scaling-stroke" d="
  M 366.87 295.23
  L 367.16 296.49
  Q 367.28 296.97 367.62 297.33
  C 369.99 299.83 374.69 303.33 376.01 306.35
  Q 376.97 308.54 377.68 306.26
  L 379.31 301.00"
/>
<path stroke="#7b8e9b" vector-effect="non-scaling-stroke" d="
  M 379.31 301.00
  Q 380.75 297.87 380.85 295.08
  Q 380.87 294.48 380.27 294.49
  L 366.21 294.57
  Q 365.66 294.57 366.14 294.83
  L 366.87 295.23"
/>
<path stroke="#9cb8c3" vector-effect="non-scaling-stroke" d="
  M 379.31 301.00
  Q 373.44 296.87 367.51 295.10
  Q 367.11 294.98 366.87 295.23"
/>
<path stroke="#8e9ba6" vector-effect="non-scaling-stroke" d="
  M 364.96 311.31
  C 355.86 300.33 341.30 299.53 328.87 302.08
  C 320.38 303.82 312.23 307.89 304.80 312.27
  Q 304.06 312.71 304.91 312.59
  Q 320.55 310.55 336.25 313.97
  Q 351.93 317.39 356.80 330.07"
/>
<path stroke="#527688" vector-effect="non-scaling-stroke" d="
  M 356.80 330.07
  L 355.93 342.90"
/>
<path stroke="#8e9ba6" vector-effect="non-scaling-stroke" d="
  M 355.93 342.90
  L 353.16 347.96
  A 0.05 0.05 0.0 0 0 353.23 348.03
  L 361.60 340.48"
/>
<path stroke="#527688" vector-effect="non-scaling-stroke" d="
  M 361.60 340.48
  Q 365.30 335.88 368.27 329.46"
/>
<path stroke="#8e9ba6" vector-effect="non-scaling-stroke" d="
  M 368.27 329.46
  Q 368.04 329.30 368.44 328.94"
/>
<path stroke="#527688" vector-effect="non-scaling-stroke" d="
  M 368.44 328.94
  C 371.55 324.66 374.85 318.37 374.10 313.04
  C 372.95 304.78 367.03 300.29 360.09 296.09
  Q 360.03 296.06 360.00 296.06
  Q 359.87 296.07 359.74 296.07
  A 0.08 0.07 -25.3 0 0 359.69 296.20
  Q 366.63 302.27 364.96 311.31"
/>
<path stroke="#c2d9e0" vector-effect="non-scaling-stroke" d="
  M 368.44 328.94
  Q 368.53 322.16 368.20 319.75
  Q 367.64 315.65 364.96 311.31"
/>
<path stroke="#c2d9e0" vector-effect="non-scaling-stroke" d="
  M 368.27 329.46
  L 367.59 329.57
  Q 367.11 329.66 366.73 329.34
  Q 362.36 325.70 356.80 330.07"
/>
<path stroke="#c2d9e0" vector-effect="non-scaling-stroke" d="
  M 361.60 340.48
  Q 358.93 340.98 355.93 342.90"
/>
<path stroke="#8e9ba6" vector-effect="non-scaling-stroke" d="
  M 317.73 335.23
  C 300.58 319.90 280.16 320.99 261.19 331.86
  Q 259.52 332.82 261.45 332.82
  Q 274.61 332.80 287.75 336.85
  C 299.89 340.60 308.53 347.00 310.97 360.19"
/>
<path stroke="#527688" vector-effect="non-scaling-stroke" d="
  M 310.97 360.19
  L 309.77 372.01"
/>
<path stroke="#8e9ba6" vector-effect="non-scaling-stroke" d="
  M 309.77 372.01
  Q 309.08 373.17 309.00 374.70"
/>
<path stroke="#527688" vector-effect="non-scaling-stroke" d="
  M 309.00 374.70
  L 307.21 379.33"
/>
<path stroke="#8e9ba6" vector-effect="non-scaling-stroke" d="
  M 307.21 379.33
  Q 306.09 380.27 304.94 383.20"
/>
<path stroke="#527688" vector-effect="non-scaling-stroke" d="
  M 304.94 383.20
  L 302.22 386.34
  Q 300.48 388.36 302.71 386.91
  Q 302.76 386.88 304.06 386.52
  C 315.10 383.44 323.10 374.75 328.69 364.48"
/>
<path stroke="#8e9ba6" vector-effect="non-scaling-stroke" d="
  M 328.69 364.48
  L 330.01 362.05"
/>
<path stroke="#527688" vector-effect="non-scaling-stroke" d="
  M 330.01 362.05
  Q 330.26 361.92 330.32 361.75
  C 335.24 348.73 331.99 333.95 320.76 325.47
  C 317.07 322.69 312.16 321.05 307.63 319.38
  Q 307.42 319.30 307.33 319.51
  L 307.33 319.52
  Q 307.24 319.72 307.44 319.82
  C 313.65 322.82 318.19 327.98 317.73 335.23"
/>
<path stroke="#c2d9e0" vector-effect="non-scaling-stroke" d="
  M 330.01 362.05
  Q 329.94 361.93 329.85 361.85
  Q 329.61 361.63 329.33 361.82
  C 323.54 365.82 317.01 371.41 309.77 372.01"
/>
<path stroke="#c2d9e0" vector-effect="non-scaling-stroke" d="
  M 310.97 360.19
  Q 315.01 355.32 320.48 356.01
  Q 322.10 356.21 323.24 357.01
  A 0.64 0.64 0.0 0 0 324.25 356.51
  C 324.42 350.27 323.41 342.62 319.56 337.92
  Q 318.42 336.52 317.73 335.23"
/>
<path stroke="#c2d9e0" vector-effect="non-scaling-stroke" d="
  M 328.69 364.48
  Q 327.52 364.76 326.72 365.46
  C 324.04 367.85 321.79 370.69 318.51 372.07
  Q 313.99 373.97 309.00 374.70"
/>
<path stroke="#c2d9e0" vector-effect="non-scaling-stroke" d="
  M 304.94 383.20
  Q 311.20 379.74 315.26 376.35
  Q 318.26 373.84 314.76 375.58
  L 307.21 379.33"
/>
<path stroke="#8e9ba6" vector-effect="non-scaling-stroke" d="
  M 276.31 365.36
  C 267.02 356.04 254.67 353.43 242.25 356.78
  C 237.40 358.08 231.91 360.87 226.88 363.14
  Q 222.05 365.32 215.69 368.64
  C 201.40 376.12 188.92 381.34 174.83 385.29
  Q 173.92 385.55 174.85 385.66
  C 184.31 386.81 190.77 386.90 202.49 385.37
  C 215.54 383.66 227.35 377.46 239.31 372.76
  C 243.64 371.07 248.57 370.02 252.75 369.93
  C 260.85 369.77 268.35 375.57 269.23 384.07"
/>
<path stroke="#527688" vector-effect="non-scaling-stroke" d="
  M 269.23 384.07
  L 268.37 390.97"
/>
<path stroke="#8e9ba6" vector-effect="non-scaling-stroke" d="
  M 268.37 390.97
  Q 268.01 391.65 267.86 392.59"
/>
<path stroke="#527688" vector-effect="non-scaling-stroke" d="
  M 267.86 392.59
  L 263.82 399.88
  Q 263.62 400.25 264.02 400.13
  C 272.03 397.78 279.31 394.46 282.85 386.48"
/>
<path stroke="#8e9ba6" vector-effect="non-scaling-stroke" d="
  M 282.85 386.48
  Q 284.98 384.45 286.35 380.60"
/>
<path stroke="#527688" vector-effect="non-scaling-stroke" d="
  M 286.35 380.60
  Q 288.22 374.75 287.17 369.61
  C 285.22 360.04 277.86 352.85 268.59 349.72
  Q 266.34 348.95 268.32 350.27
  Q 276.09 355.40 277.39 364.74
  A 0.59 0.57 -16.1 0 1 277.04 365.35
  Q 276.82 365.44 276.31 365.36"
/>
<path stroke="#c2d9e0" vector-effect="non-scaling-stroke" d="
  M 286.35 380.60
  Q 284.99 381.57 283.97 382.94
  C 280.96 386.99 273.49 390.88 268.37 390.97"
/>
<path stroke="#c2d9e0" vector-effect="non-scaling-stroke" d="
  M 269.23 384.07
  Q 274.15 379.17 279.91 381.93
  Q 280.53 382.22 280.63 381.55
  Q 282.07 372.33 276.31 365.36"
/>
<path stroke="#c2d9e0" vector-effect="non-scaling-stroke" d="
  M 282.85 386.48
  Q 275.79 391.81 267.86 392.59"
/>
</g>
<path fill="#1e384e" d="
  M 368.23 215.97
  L 368.75 207.82
  Q 368.87 204.54 369.28 201.38
  C 371.32 185.87 372.46 170.19 373.30 154.71
  A 0.99 0.98 83.3 0 0 372.04 153.71
  L 358.75 157.55
  Q 357.26 157.98 357.56 159.50
  Q 357.65 159.97 357.39 160.79
  Q 353.90 171.79 350.02 182.26
  L 345.00 184.39
  Q 344.45 184.63 344.58 184.05
  L 349.17 162.47
  A 0.93 0.92 -3.5 0 1 349.78 161.79
  L 357.13 159.27
  Q 357.34 159.20 357.28 158.98
  L 357.20 158.71
  Q 357.13 158.47 356.89 158.54
  L 331.62 166.27
  A 1.71 1.69 -84.8 0 0 330.59 167.14
  Q 326.12 175.86 319.93 183.47
  Q 318.55 185.16 318.66 182.98
  Q 318.95 177.30 319.01 170.96
  C 319.03 169.38 319.32 167.99 318.34 166.68
  Q 314.04 160.91 309.43 155.56
  Q 308.87 154.91 309.72 154.79
  C 315.14 154.05 323.11 156.69 328.38 158.23
  Q 328.88 158.38 329.33 158.12
  L 355.11 143.30
  L 370.51 135.93
  A 0.84 0.83 66.9 0 0 370.93 134.87
  C 367.69 126.34 364.65 116.82 361.56 109.12
  Q 355.65 94.33 348.64 78.96
  Q 348.16 77.93 349.30 77.92
  Q 354.19 77.85 357.39 82.32
  Q 365.85 94.11 374.53 105.89
  A 1.44 1.44 0.0 0 0 376.51 106.22
  Q 380.12 103.69 384.48 102.90
  A 0.77 0.77 0.0 0 1 385.27 103.26
  C 387.84 107.51 382.61 109.34 379.65 110.01
  A 1.08 1.08 0.0 0 0 379.01 111.69
  L 389.71 126.64
  A 1.00 0.99 -31.5 0 0 390.98 126.94
  C 397.79 123.47 406.03 118.92 412.97 117.33
  C 422.14 115.24 446.51 116.12 426.64 131.79
  Q 424.03 133.85 419.38 135.84
  Q 407.00 141.12 394.35 144.94
  A 2.35 2.34 -89.7 0 0 392.79 146.49
  L 386.01 168.50
  A 0.38 0.37 -0.6 0 0 386.49 168.96
  L 394.66 166.19
  A 0.78 0.77 68.5 0 1 395.62 166.61
  Q 396.60 168.77 395.80 171.02
  Q 395.59 171.59 395.03 171.80
  L 385.47 175.22
  Q 384.98 175.40 384.74 175.85
  Q 383.30 178.53 383.05 179.56
  Q 380.18 191.49 376.72 203.26
  C 375.11 208.72 372.42 211.70 368.23 215.97
  Z"
/>
<path fill="#1e384e" d="
  M 270.28 115.99
  Q 269.86 116.41 268.96 116.63
  Q 268.32 116.79 267.56 116.53
  C 243.55 108.19 218.04 103.31 193.17 110.44
  C 189.80 111.40 185.51 113.16 181.81 114.29
  Q 179.80 114.91 181.90 114.87
  C 200.60 114.59 219.29 121.35 234.85 131.40
  C 269.17 153.54 284.29 196.24 278.65 235.93
  Q 278.58 236.39 279.02 236.22
  Q 306.88 225.02 336.75 221.55
  Q 345.03 220.59 364.56 221.61
  L 380.94 224.32
  A 0.59 0.59 0.0 0 0 381.63 223.68
  L 380.46 211.67
  Q 380.42 211.32 380.72 211.14
  L 387.10 207.23
  A 0.33 0.33 0.0 0 1 387.60 207.47
  L 390.07 226.65
  Q 390.25 228.03 391.55 228.53
  C 396.60 230.45 402.00 232.71 406.60 235.84
  Q 408.36 237.03 410.28 237.96
  Q 410.80 238.22 410.23 238.32
  Q 408.86 238.59 407.65 238.09
  C 405.96 237.39 405.18 237.32 403.58 237.58
  Q 401.36 236.74 397.25 235.97
  C 391.25 234.86 385.07 233.55 379.19 233.12
  C 358.13 231.57 335.89 232.56 315.50 237.26
  Q 309.37 238.67 303.34 240.26
  Q 277.96 246.95 256.53 262.05
  C 248.68 267.57 242.60 274.75 236.04 282.32
  C 228.69 290.80 222.56 302.03 216.77 313.22
  Q 208.05 330.08 197.26 341.99
  Q 192.35 347.42 181.55 354.76
  Q 180.76 354.74 179.98 355.19
  C 166.90 362.59 153.29 365.78 138.70 367.74
  Q 136.72 368.01 134.87 367.57
  C 132.28 366.96 130.36 364.02 127.64 363.80
  Q 125.95 363.66 121.27 365.05
  Q 96.94 372.27 73.35 381.64
  Q 70.49 382.78 68.05 384.05
  Q 67.19 384.51 67.86 383.80
  C 79.86 371.17 94.66 361.62 110.43 354.42
  C 118.88 350.57 128.49 347.77 137.75 345.20
  C 142.85 343.78 148.22 343.74 153.13 341.85
  Q 162.64 340.70 168.75 338.73
  C 192.14 331.20 202.09 300.04 179.27 284.89
  C 176.54 283.07 175.78 282.49 173.03 281.73
  C 162.28 278.75 150.42 279.57 142.10 287.04
  C 133.30 294.93 130.12 308.28 135.17 319.32
  A 0.32 0.31 70.8 0 0 135.53 319.50
  Q 145.26 317.26 155.20 316.31
  Q 157.88 316.05 155.28 315.36
  C 148.57 313.59 146.18 305.49 150.36 299.89
  C 155.95 292.38 166.28 291.47 173.01 298.46
  C 179.09 304.76 177.77 313.84 171.88 319.54
  C 165.31 325.90 152.59 327.11 144.12 328.80
  Q 140.86 328.71 137.26 329.59
  Q 122.86 333.12 109.07 338.99
  Q 107.92 339.49 107.02 338.61
  Q 105.68 337.30 104.34 335.11
  C 73.78 285.47 69.14 223.29 99.66 172.50
  Q 105.85 162.18 108.54 159.25
  Q 112.07 155.40 115.26 151.26
  Q 119.02 146.39 129.22 137.71
  C 140.86 127.79 155.28 119.28 170.07 113.41
  C 175.78 111.15 181.56 108.66 187.21 106.99
  C 216.64 98.25 247.94 97.32 276.20 111.11
  A 0.68 0.68 0.0 0 1 276.26 112.30
  L 270.28 115.99
  Z
  M 217.46 134.30
  C 207.16 128.88 194.93 126.04 183.53 125.74
  Q 182.84 125.72 183.48 125.98
  Q 197.81 131.90 209.19 142.45
  A 0.60 0.60 0.0 0 0 210.02 142.44
  L 217.57 135.12
  A 0.51 0.51 0.0 0 0 217.46 134.30
  Z
  M 189.96 156.15
  Q 195.69 153.37 200.32 149.06
  A 0.45 0.45 0.0 0 0 200.32 148.40
  Q 192.62 141.20 183.47 136.63
  C 181.62 135.70 179.47 135.18 177.44 134.32
  C 171.24 131.70 165.43 130.33 158.66 130.34
  A 0.26 0.26 0.0 0 0 158.45 130.75
  C 165.13 140.72 169.64 152.67 174.10 163.74
  A 0.33 0.32 -24.1 0 0 174.55 163.91
  C 179.71 161.32 184.74 158.68 189.96 156.15
  Z
  M 160.98 159.14
  L 156.88 149.90
  Q 156.14 146.67 154.72 144.43
  L 151.75 138.88
  L 149.39 134.99
  A 0.65 0.65 0.0 0 0 148.38 134.86
  C 141.27 141.77 137.05 151.36 134.94 160.90
  C 134.00 165.16 132.61 169.51 132.49 173.84
  Q 132.47 174.61 133.24 174.57
  Q 149.06 173.77 163.79 167.97
  A 0.67 0.67 0.0 0 0 164.16 167.10
  L 160.98 159.14
  Z
  M 227.43 168.30
  C 233.02 179.40 237.74 191.03 240.08 203.01
  Q 240.18 203.54 240.70 203.40
  Q 250.64 200.76 260.52 197.90
  C 262.11 197.44 263.97 197.29 265.66 196.88
  A 0.54 0.54 0.0 0 0 266.06 196.24
  Q 262.23 177.96 251.93 162.93
  C 248.10 157.34 242.35 152.10 237.41 146.83
  Q 234.93 144.18 227.48 139.46
  Q 227.07 139.20 226.74 139.56
  L 217.00 149.98
  Q 216.60 150.41 216.87 150.93
  Q 218.22 153.52 218.78 154.26
  Q 223.51 160.53 227.43 168.30
  Z
  M 122.65 170.65
  L 123.62 165.41
  Q 125.18 158.12 127.66 153.26
  A 0.46 0.46 0.0 0 0 126.87 152.80
  C 125.28 155.28 122.56 157.57 120.86 159.53
  C 117.94 162.90 115.55 165.83 113.19 169.64
  Q 112.77 170.33 113.52 170.62
  L 121.52 173.73
  Q 122.19 173.99 122.29 173.27
  L 122.65 170.65
  Z
  M 197.19 215.59
  L 208.81 212.27
  L 229.53 206.55
  Q 230.08 206.40 229.95 205.85
  L 228.71 200.67
  L 225.40 190.75
  L 219.27 176.24
  L 217.69 172.21
  L 208.71 157.09
  A 1.34 1.34 0.0 0 0 206.75 156.70
  C 197.64 163.64 188.98 168.78 178.32 172.59
  A 0.88 0.88 0.0 0 0 177.80 173.75
  Q 186.19 194.66 192.33 216.35
  Q 192.50 216.94 193.08 216.77
  L 197.19 215.59
  Z
  M 161.25 178.91
  C 151.94 181.63 142.75 182.90 133.21 184.05
  Q 132.71 183.92 132.11 183.98
  Q 131.64 184.03 131.60 184.50
  Q 130.64 195.29 132.34 206.15
  Q 132.08 208.73 133.01 212.39
  L 133.44 215.97
  L 135.31 225.52
  L 136.02 228.88
  Q 135.87 230.35 136.39 231.44
  Q 136.58 231.83 137.00 231.72
  L 181.52 219.41
  A 0.48 0.47 -16.2 0 0 181.85 218.82
  L 179.67 211.45
  L 178.05 206.29
  L 175.46 196.62
  L 173.06 190.03
  L 169.88 181.25
  L 168.36 177.48
  Q 168.13 176.90 167.54 177.08
  L 161.25 178.91
  Z
  M 99.42 195.21
  L 97.52 199.55
  L 94.22 210.73
  L 93.64 213.49
  Q 90.63 225.71 90.11 238.92
  L 89.97 241.98
  L 89.81 249.61
  Q 89.80 250.17 90.29 249.89
  Q 99.90 244.26 110.56 240.63
  Q 118.16 238.04 126.14 235.36
  A 0.55 0.54 74.9 0 0 126.50 234.72
  L 125.76 231.64
  L 124.68 227.78
  L 122.62 217.78
  Q 122.33 217.53 122.51 216.85
  Q 120.79 207.38 120.67 197.90
  L 120.55 194.11
  L 120.96 183.15
  A 0.61 0.61 0.0 0 0 120.48 182.53
  Q 114.16 181.17 108.33 178.37
  Q 107.70 178.07 107.39 178.70
  L 99.42 195.21
  Z
  M 242.06 213.78
  C 244.84 227.40 245.88 241.24 244.46 255.07
  A 0.25 0.24 76.3 0 0 244.84 255.31
  L 266.04 241.24
  A 1.01 0.97 -12.1 0 0 266.46 240.62
  Q 270.02 223.99 267.94 207.11
  A 0.63 0.63 0.0 0 0 267.14 206.58
  L 242.26 213.45
  A 0.29 0.28 76.8 0 0 242.06 213.78
  Z
  M 202.56 264.28
  L 203.14 268.78
  Q 203.21 269.33 203.76 269.26
  Q 217.89 267.44 231.66 263.80
  C 234.31 263.10 233.90 258.18 234.01 255.94
  L 234.42 248.96
  Q 235.12 233.82 232.69 219.24
  L 232.05 216.86
  Q 231.88 216.22 231.24 216.39
  L 195.27 225.91
  A 0.37 0.37 0.0 0 0 195.01 226.33
  L 202.56 264.28
  Z
  M 141.04 245.74
  L 142.34 249.49
  L 147.61 261.48
  L 148.43 263.02
  L 152.14 270.44
  Q 152.37 270.90 152.89 270.84
  L 163.51 269.67
  L 174.90 271.16
  L 180.75 274.31
  Q 181.18 274.54 181.66 274.44
  L 192.62 272.12
  A 0.57 0.57 0.0 0 0 193.07 271.48
  L 192.33 266.86
  L 191.18 260.29
  L 188.94 248.67
  Q 188.90 248.26 188.86 247.84
  L 186.65 237.17
  L 185.56 233.06
  L 184.80 229.58
  A 0.81 0.81 0.0 0 0 183.79 228.98
  C 173.54 231.86 163.26 234.53 153.02 237.44
  Q 147.02 239.14 140.30 240.32
  Q 139.09 240.53 139.52 241.67
  L 141.04 245.74
  Z
  M 106.84 252.58
  L 95.54 257.84
  L 90.67 260.48
  Q 90.19 260.74 90.26 261.27
  L 92.38 276.98
  Q 92.59 277.05 92.65 278.34
  L 94.29 287.23
  L 95.50 291.10
  Q 97.02 298.05 100.53 304.59
  Q 100.81 305.10 101.33 304.87
  L 123.20 295.54
  A 3.26 3.25 -85.4 0 0 124.67 294.28
  L 131.77 282.77
  Q 134.15 281.40 137.06 278.57
  Q 138.30 277.35 141.86 275.58
  Q 142.33 275.35 142.20 274.85
  Q 142.08 274.36 141.74 273.84
  L 137.49 265.37
  L 136.97 264.34
  L 132.26 252.22
  L 130.55 247.80
  Q 130.24 245.92 129.42 244.54
  Q 129.16 244.09 128.66 244.24
  Q 117.68 247.53 106.84 252.58
  Z
  M 224.79 275.62
  L 204.89 278.65
  Q 204.40 278.73 204.46 279.21
  Q 206.04 292.29 205.97 305.47
  Q 205.97 306.40 206.47 305.62
  Q 212.58 296.17 218.30 286.46
  C 220.31 283.05 223.18 279.90 225.33 276.44
  Q 225.95 275.44 224.79 275.62
  Z
  M 110.35 324.32
  L 123.29 321.77
  A 0.97 0.97 0.0 0 0 124.01 320.49
  Q 121.56 313.66 121.97 306.40
  A 0.71 0.70 -11.6 0 0 120.95 305.73
  L 105.24 313.49
  A 0.93 0.93 0.0 0 0 104.82 314.75
  L 109.46 323.89
  A 0.82 0.82 0.0 0 0 110.35 324.32
  Z"
/>
<path fill="#fefefe" d="
  M 270.28 115.99
  L 281.13 124.33
  Q 277.74 126.04 272.43 123.13
  Q 270.15 121.88 268.95 121.68
  Q 267.01 121.34 265.03 121.71
  A 0.44 0.44 0.0 0 0 264.82 122.47
  L 281.10 136.62
  A 0.43 0.43 0.0 0 1 281.08 137.28
  L 270.20 145.66
  A 1.25 1.24 30.3 0 1 269.28 145.90
  L 260.34 144.56
  A 0.59 0.59 0.0 0 0 259.78 145.50
  Q 261.83 148.22 264.15 150.61
  C 266.06 152.59 265.90 155.04 266.01 157.57
  A 0.42 0.42 0.0 0 0 266.70 157.87
  C 269.30 155.65 270.32 153.23 271.89 150.30
  A 1.41 1.39 -86.8 0 1 272.60 149.66
  C 276.45 148.14 280.10 147.01 283.63 144.67
  A 0.41 0.41 0.0 0 1 284.27 145.02
  L 283.90 172.00
  A 0.30 0.30 0.0 0 0 284.40 172.22
  C 288.79 168.18 289.13 162.73 290.19 157.25
  C 290.54 155.43 294.62 154.28 296.18 153.62
  Q 297.47 153.07 296.87 151.80
  L 296.64 151.30
  A 1.43 1.42 65.3 0 0 294.77 150.60
  L 291.86 151.90
  A 0.37 0.37 0.0 0 1 291.35 151.48
  L 294.00 140.26
  A 1.05 1.03 -3.3 0 1 294.67 139.52
  Q 301.04 137.28 306.93 133.53
  Q 310.16 136.58 312.88 139.64
  C 315.36 142.44 323.18 141.71 326.89 141.83
  C 329.46 141.90 331.69 146.68 332.47 148.79
  Q 333.30 151.02 335.36 149.84
  Q 338.25 148.18 340.52 146.99
  C 342.44 145.98 344.59 146.01 346.78 145.27
  Q 347.80 146.40 350.00 145.03
  Q 352.17 143.67 354.43 142.68
  Q 354.78 142.90 355.11 143.30
  L 329.33 158.12
  Q 328.88 158.38 328.38 158.23
  C 323.11 156.69 315.14 154.05 309.72 154.79
  Q 308.87 154.91 309.43 155.56
  Q 314.04 160.91 318.34 166.68
  C 319.32 167.99 319.03 169.38 319.01 170.96
  Q 318.95 177.30 318.66 182.98
  Q 318.55 185.16 319.93 183.47
  Q 326.12 175.86 330.59 167.14
  A 1.71 1.69 -84.8 0 1 331.62 166.27
  L 356.89 158.54
  Q 357.13 158.47 357.20 158.71
  L 357.28 158.98
  Q 357.34 159.20 357.13 159.27
  L 349.78 161.79
  A 0.93 0.92 -3.5 0 0 349.17 162.47
  L 344.58 184.05
  Q 344.45 184.63 345.00 184.39
  L 350.02 182.26
  C 350.87 189.33 351.27 196.64 354.05 204.14
  Q 354.92 206.48 354.65 207.98
  Q 354.41 209.30 353.07 209.18
  Q 352.60 209.13 352.20 209.39
  C 349.68 211.07 347.16 212.49 346.80 215.82
  A 1.01 1.01 0.0 0 0 347.44 216.87
  Q 350.02 217.90 352.64 216.97
  Q 353.25 216.76 353.34 216.11
  L 353.95 211.86
  A 2.51 2.46 77.7 0 1 355.03 210.14
  C 358.22 208.01 364.65 208.33 368.75 207.82
  L 368.23 215.97
  Q 367.28 218.95 364.56 221.61
  Q 345.03 220.59 336.75 221.55
  Q 306.88 225.02 279.02 236.22
  Q 278.58 236.39 278.65 235.93
  C 284.29 196.24 269.17 153.54 234.85 131.40
  C 219.29 121.35 200.60 114.59 181.90 114.87
  Q 179.80 114.91 181.81 114.29
  C 185.51 113.16 189.80 111.40 193.17 110.44
  C 218.04 103.31 243.55 108.19 267.56 116.53
  Q 268.32 116.79 268.96 116.63
  Q 269.86 116.41 270.28 115.99
  Z
  M 291.52 203.41
  Q 301.75 198.96 312.50 195.29
  Q 315.35 194.32 315.66 191.12
  A 0.86 0.85 20.9 0 0 315.31 190.34
  C 313.46 188.93 311.67 189.08 309.54 190.22
  C 303.32 193.56 297.42 196.79 290.76 199.16
  Q 289.24 199.70 289.55 201.27
  L 289.78 202.49
  Q 290.08 204.03 291.52 203.41
  Z
  M 310.15 221.02
  Q 314.03 219.41 316.84 218.52
  C 325.86 215.67 334.49 211.76 343.25 208.21
  Q 346.59 206.86 347.20 202.80
  Q 347.26 202.40 346.90 202.21
  Q 344.38 200.90 342.95 201.61
  Q 337.58 204.31 332.07 206.71
  C 324.59 209.96 317.14 213.94 309.49 217.02
  Q 308.17 217.54 308.32 218.95
  L 308.43 220.00
  Q 308.61 221.66 310.15 221.02
  Z"
/>
<path fill="#1e384e" d="
  M 281.13 124.33
  Q 285.34 121.07 285.77 125.65
  Q 283.32 125.80 281.90 127.26
  Q 281.47 127.71 282.02 127.99
  L 289.20 131.66
  Q 289.64 131.89 290.10 131.72
  Q 291.78 131.10 293.36 129.62
  Q 299.12 126.44 301.99 125.22
  Q 306.22 123.44 310.00 124.95
  A 2.08 2.08 0.0 0 1 311.08 127.84
  Q 309.37 131.16 306.93 133.53
  Q 301.04 137.28 294.67 139.52
  A 1.05 1.03 -3.3 0 0 294.00 140.26
  L 291.35 151.48
  A 0.37 0.37 0.0 0 0 291.86 151.90
  L 294.77 150.60
  A 1.43 1.42 65.3 0 1 296.64 151.30
  L 296.87 151.80
  Q 297.47 153.07 296.18 153.62
  C 294.62 154.28 290.54 155.43 290.19 157.25
  C 289.13 162.73 288.79 168.18 284.40 172.22
  A 0.30 0.30 0.0 0 1 283.90 172.00
  L 284.27 145.02
  A 0.41 0.41 0.0 0 0 283.63 144.67
  C 280.10 147.01 276.45 148.14 272.60 149.66
  A 1.41 1.39 -86.8 0 0 271.89 150.30
  C 270.32 153.23 269.30 155.65 266.70 157.87
  A 0.42 0.42 0.0 0 1 266.01 157.57
  C 265.90 155.04 266.06 152.59 264.15 150.61
  Q 261.83 148.22 259.78 145.50
  A 0.59 0.59 0.0 0 1 260.34 144.56
  L 269.28 145.90
  A 1.25 1.24 30.3 0 0 270.20 145.66
  L 281.08 137.28
  A 0.43 0.43 0.0 0 0 281.10 136.62
  L 264.82 122.47
  A 0.44 0.44 0.0 0 1 265.03 121.71
  Q 267.01 121.34 268.95 121.68
  Q 270.15 121.88 272.43 123.13
  Q 277.74 126.04 281.13 124.33
  Z"
/>
<path fill="#fefefe" d="
  M 183.53 125.74
  C 194.93 126.04 207.16 128.88 217.46 134.30
  A 0.51 0.51 0.0 0 1 217.57 135.12
  L 210.02 142.44
  A 0.60 0.60 0.0 0 1 209.19 142.45
  Q 197.81 131.90 183.48 125.98
  Q 182.84 125.72 183.53 125.74
  Z"
/>
<path fill="#fefefe" d="
  M 285.77 125.65
  L 293.36 129.62
  Q 291.78 131.10 290.10 131.72
  Q 289.64 131.89 289.20 131.66
  L 282.02 127.99
  Q 281.47 127.71 281.90 127.26
  Q 283.32 125.80 285.77 125.65
  Z"
/>
<path fill="#fefefe" d="
  M 189.96 156.15
  C 184.74 158.68 179.71 161.32 174.55 163.91
  A 0.33 0.32 -24.1 0 1 174.10 163.74
  C 169.64 152.67 165.13 140.72 158.45 130.75
  A 0.26 0.26 0.0 0 1 158.66 130.34
  C 165.43 130.33 171.24 131.70 177.44 134.32
  C 179.47 135.18 181.62 135.70 183.47 136.63
  Q 192.62 141.20 200.32 148.40
  A 0.45 0.45 0.0 0 1 200.32 149.06
  Q 195.69 153.37 189.96 156.15
  Z
  M 176.17 137.46
  C 172.74 135.74 169.77 135.19 166.03 135.11
  Q 165.46 135.10 165.62 135.65
  C 166.69 139.40 168.79 142.84 170.42 146.34
  A 0.73 0.73 0.0 0 0 171.68 146.45
  L 176.64 139.31
  A 1.26 1.26 0.0 0 0 176.17 137.46
  Z
  M 192.38 148.35
  A 1.26 1.26 0.0 0 0 192.25 146.45
  Q 186.95 142.42 180.77 139.84
  A 0.62 0.61 22.1 0 0 179.96 140.18
  Q 177.86 145.43 173.69 149.24
  A 2.58 2.57 56.6 0 0 173.09 152.21
  L 176.33 159.23
  A 0.87 0.87 0.0 0 0 177.62 159.58
  C 180.38 157.67 183.56 156.23 185.96 154.22
  Q 189.06 151.63 192.38 148.35
  Z"
/>
<path fill="#1e384e" d="
  M 354.43 142.68
  Q 352.17 143.67 350.00 145.03
  Q 347.80 146.40 346.78 145.27
  Q 342.83 140.13 334.51 133.72
  Q 333.68 133.08 334.63 132.63
  L 339.16 130.52
  Q 340.38 129.95 341.45 130.76
  C 343.53 132.35 345.32 134.00 347.68 135.43
  Q 351.72 137.86 355.08 141.20
  Q 355.43 141.55 355.02 141.83
  Q 354.37 142.26 354.43 142.68
  Z"
/>
<path fill="#fefefe" d="
  M 151.75 138.88
  Q 146.68 142.23 142.54 147.30
  Q 138.99 151.67 138.08 157.45
  A 0.60 0.59 84.0 0 0 138.88 158.10
  Q 149.42 154.05 154.72 144.43
  Q 156.14 146.67 156.88 149.90
  C 152.53 155.86 144.05 160.27 137.52 163.09
  C 135.10 164.13 135.30 169.25 135.22 171.33
  A 1.18 1.18 0.0 0 0 136.60 172.53
  C 142.83 171.50 150.49 170.01 155.07 165.57
  Q 158.07 162.65 160.98 159.14
  L 164.16 167.10
  A 0.67 0.67 0.0 0 1 163.79 167.97
  Q 149.06 173.77 133.24 174.57
  Q 132.47 174.61 132.49 173.84
  C 132.61 169.51 134.00 165.16 134.94 160.90
  C 137.05 151.36 141.27 141.77 148.38 134.86
  A 0.65 0.65 0.0 0 1 149.39 134.99
  L 151.75 138.88
  Z"
/>
<path fill="#9acbd4" d="
  M 166.03 135.11
  C 169.77 135.19 172.74 135.74 176.17 137.46
  A 1.26 1.26 0.0 0 1 176.64 139.31
  L 171.68 146.45
  A 0.73 0.73 0.0 0 1 170.42 146.34
  C 168.79 142.84 166.69 139.40 165.62 135.65
  Q 165.46 135.10 166.03 135.11
  Z"
/>
<path fill="#9acbd4" d="
  M 151.75 138.88
  L 154.72 144.43
  Q 149.42 154.05 138.88 158.10
  A 0.60 0.59 84.0 0 1 138.08 157.45
  Q 138.99 151.67 142.54 147.30
  Q 146.68 142.23 151.75 138.88
  Z"
/>
<path fill="#fefefe" d="
  M 227.43 168.30
  Q 223.51 160.53 218.78 154.26
  Q 218.22 153.52 216.87 150.93
  Q 216.60 150.41 217.00 149.98
  L 226.74 139.56
  Q 227.07 139.20 227.48 139.46
  Q 234.93 144.18 237.41 146.83
  C 242.35 152.10 248.10 157.34 251.93 162.93
  Q 262.23 177.96 266.06 196.24
  A 0.54 0.54 0.0 0 1 265.66 196.88
  C 263.97 197.29 262.11 197.44 260.52 197.90
  Q 250.64 200.76 240.70 203.40
  Q 240.18 203.54 240.08 203.01
  C 237.74 191.03 233.02 179.40 227.43 168.30
  Z
  M 246.36 174.68
  L 239.48 179.76
  Q 239.10 180.04 239.11 180.50
  C 239.17 185.17 241.01 191.12 242.18 195.70
  A 0.70 0.69 -20.1 0 0 243.16 196.15
  L 256.72 189.59
  A 2.04 2.03 67.8 0 0 257.76 187.10
  Q 252.15 170.73 241.13 157.32
  C 238.20 153.75 235.86 150.34 232.48 147.16
  Q 231.44 146.18 230.43 147.19
  L 225.76 151.83
  A 1.77 1.76 49.4 0 0 225.59 154.13
  Q 228.25 157.72 230.53 162.02
  C 230.85 162.63 231.62 163.04 231.99 163.80
  Q 235.46 170.97 238.04 178.44
  A 0.85 0.85 0.0 0 0 239.34 178.86
  L 246.00 174.17
  A 0.31 0.31 0.0 0 1 246.36 174.68
  Z"
/>
<path fill="#9acbd4" d="
  M 192.38 148.35
  Q 189.06 151.63 185.96 154.22
  C 183.56 156.23 180.38 157.67 177.62 159.58
  A 0.87 0.87 0.0 0 1 176.33 159.23
  L 173.09 152.21
  A 2.58 2.57 56.6 0 1 173.69 149.24
  Q 177.86 145.43 179.96 140.18
  A 0.62 0.61 22.1 0 1 180.77 139.84
  Q 186.95 142.42 192.25 146.45
  A 1.26 1.26 0.0 0 1 192.38 148.35
  Z"
/>
<path fill="#9acbd4" d="
  M 246.00 174.17
  L 239.34 178.86
  A 0.85 0.85 0.0 0 1 238.04 178.44
  Q 235.46 170.97 231.99 163.80
  C 231.62 163.04 230.85 162.63 230.53 162.02
  Q 228.25 157.72 225.59 154.13
  A 1.77 1.76 49.4 0 1 225.76 151.83
  L 230.43 147.19
  Q 231.44 146.18 232.48 147.16
  C 235.86 150.34 238.20 153.75 241.13 157.32
  Q 252.15 170.73 257.76 187.10
  A 2.04 2.03 67.8 0 1 256.72 189.59
  L 243.16 196.15
  A 0.70 0.69 -20.1 0 1 242.18 195.70
  C 241.01 191.12 239.17 185.17 239.11 180.50
  Q 239.10 180.04 239.48 179.76
  L 246.36 174.68
  A 0.31 0.31 0.0 0 0 246.00 174.17
  Z
  M 239.3288 157.7439
  A 0.53 0.53 0.0 0 0 238.5834 157.6656
  L 232.8170 162.3351
  A 0.53 0.53 0.0 0 0 232.7386 163.0805
  L 232.7512 163.0961
  A 0.53 0.53 0.0 0 0 233.4966 163.1744
  L 239.2630 158.5049
  A 0.53 0.53 0.0 0 0 239.3414 157.7595
  L 239.3288 157.7439
  Z"
/>
<path fill="#9acbd4" d="
  M 156.88 149.90
  L 160.98 159.14
  Q 158.07 162.65 155.07 165.57
  C 150.49 170.01 142.83 171.50 136.60 172.53
  A 1.18 1.18 0.0 0 1 135.22 171.33
  C 135.30 169.25 135.10 164.13 137.52 163.09
  C 144.05 160.27 152.53 155.86 156.88 149.90
  Z"
/>
<path fill="#d7e4e8" d="
  M 123.62 165.41
  L 117.12 167.93
  Q 115.90 168.40 117.14 168.81
  L 122.65 170.65
  L 122.29 173.27
  Q 122.19 173.99 121.52 173.73
  L 113.52 170.62
  Q 112.77 170.33 113.19 169.64
  C 115.55 165.83 117.94 162.90 120.86 159.53
  C 122.56 157.57 125.28 155.28 126.87 152.80
  A 0.46 0.46 0.0 0 1 127.66 153.26
  Q 125.18 158.12 123.62 165.41
  Z"
/>
<path fill="#fefefe" d="
  M 217.69 172.21
  Q 215.17 174.81 212.44 176.68
  C 205.04 181.76 197.98 187.16 190.34 191.84
  A 1.10 1.10 0.0 0 0 189.86 193.11
  L 193.79 205.50
  A 0.69 0.69 0.0 0 0 194.81 205.89
  C 203.58 200.50 212.64 195.69 217.51 186.26
  Q 219.56 182.27 219.27 176.24
  L 225.40 190.75
  Q 222.89 192.97 220.42 195.18
  C 213.47 201.43 204.46 206.42 196.06 210.43
  Q 195.61 210.64 195.59 211.14
  Q 195.49 214.02 197.19 215.59
  L 193.08 216.77
  Q 192.50 216.94 192.33 216.35
  Q 186.19 194.66 177.80 173.75
  A 0.88 0.88 0.0 0 1 178.32 172.59
  C 188.98 168.78 197.64 163.64 206.75 156.70
  A 1.34 1.34 0.0 0 1 208.71 157.09
  L 217.69 172.21
  Z
  M 216.11 170.83
  L 211.89 163.92
  A 1.20 1.20 0.0 0 0 210.20 163.54
  Q 203.70 167.85 196.89 171.74
  C 193.13 173.89 188.94 175.51 184.88 177.30
  A 1.04 1.04 0.0 0 0 184.32 178.63
  L 188.79 190.28
  A 0.71 0.70 -26.1 0 0 189.82 190.63
  Q 201.46 183.31 212.63 175.13
  Q 213.94 174.17 215.99 171.95
  Q 216.47 171.43 216.11 170.83
  Z"
/>
<rect fill="#fefefe" x="-4.24" y="-0.54" transform="translate(236.04,160.42) rotate(-39.0)" width="8.48" height="1.08" rx="0.53"/>
<path fill="#9acbd4" d="
  M 211.89 163.92
  L 216.11 170.83
  Q 216.47 171.43 215.99 171.95
  Q 213.94 174.17 212.63 175.13
  Q 201.46 183.31 189.82 190.63
  A 0.71 0.70 -26.1 0 1 188.79 190.28
  L 184.32 178.63
  A 1.04 1.04 0.0 0 1 184.88 177.30
  C 188.94 175.51 193.13 173.89 196.89 171.74
  Q 203.70 167.85 210.20 163.54
  A 1.20 1.20 0.0 0 1 211.89 163.92
  Z"
/>
<path fill="#85b4c1" d="
  M 123.62 165.41
  L 122.65 170.65
  L 117.14 168.81
  Q 115.90 168.40 117.12 167.93
  L 123.62 165.41
  Z"
/>
<path fill="#9acbd4" d="
  M 217.69 172.21
  L 219.27 176.24
  Q 219.56 182.27 217.51 186.26
  C 212.64 195.69 203.58 200.50 194.81 205.89
  A 0.69 0.69 0.0 0 1 193.79 205.50
  L 189.86 193.11
  A 1.10 1.10 0.0 0 1 190.34 191.84
  C 197.98 187.16 205.04 181.76 212.44 176.68
  Q 215.17 174.81 217.69 172.21
  Z"
/>
<path fill="#fefefe" d="
  M 169.88 181.25
  C 159.28 188.07 146.12 192.79 134.12 196.00
  A 1.99 1.98 83.5 0 0 132.65 197.85
  L 132.34 206.15
  Q 130.64 195.29 131.60 184.50
  Q 131.64 184.03 132.11 183.98
  Q 132.71 183.92 133.21 184.05
  Q 132.50 187.91 133.06 191.67
  Q 133.14 192.18 133.63 192.00
  Q 144.90 187.83 155.64 182.63
  Q 158.59 181.20 161.25 178.91
  L 167.54 177.08
  Q 168.13 176.90 168.36 177.48
  L 169.88 181.25
  Z"
/>
<path fill="#85b4c1" d="
  M 120.55 194.11
  Q 110.09 196.59 99.42 195.21
  L 107.39 178.70
  Q 107.70 178.07 108.33 178.37
  Q 114.16 181.17 120.48 182.53
  A 0.61 0.61 0.0 0 1 120.96 183.15
  L 120.55 194.11
  Z"
/>
<path fill="#9acbd4" d="
  M 161.25 178.91
  Q 158.59 181.20 155.64 182.63
  Q 144.90 187.83 133.63 192.00
  Q 133.14 192.18 133.06 191.67
  Q 132.50 187.91 133.21 184.05
  C 142.75 182.90 151.94 181.63 161.25 178.91
  Z"
/>
<path fill="#9acbd4" d="
  M 169.88 181.25
  L 173.06 190.03
  C 168.14 194.96 163.36 197.13 158.15 200.35
  Q 153.30 203.36 151.90 204.07
  Q 142.77 208.69 133.01 212.39
  Q 132.08 208.73 132.34 206.15
  L 132.65 197.85
  A 1.99 1.98 83.5 0 1 134.12 196.00
  C 146.12 192.79 159.28 188.07 169.88 181.25
  Z"
/>
<path fill="#608c9e" d="
  M 291.52 203.41
  Q 290.08 204.03 289.78 202.49
  L 289.55 201.27
  Q 289.24 199.70 290.76 199.16
  C 297.42 196.79 303.32 193.56 309.54 190.22
  C 311.67 189.08 313.46 188.93 315.31 190.34
  A 0.86 0.85 20.9 0 1 315.66 191.12
  Q 315.35 194.32 312.50 195.29
  Q 301.75 198.96 291.52 203.41
  Z"
/>
<path fill="#fefefe" d="
  M 173.06 190.03
  L 175.46 196.62
  Q 165.82 203.28 156.25 207.52
  Q 146.59 211.81 133.44 215.97
  L 133.01 212.39
  Q 142.77 208.69 151.90 204.07
  Q 153.30 203.36 158.15 200.35
  C 163.36 197.13 168.14 194.96 173.06 190.03
  Z"
/>
<path fill="#9acbd4" d="
  M 225.40 190.75
  L 228.71 200.67
  Q 219.67 207.43 208.81 212.27
  L 197.19 215.59
  Q 195.49 214.02 195.59 211.14
  Q 195.61 210.64 196.06 210.43
  C 204.46 206.42 213.47 201.43 220.42 195.18
  Q 222.89 192.97 225.40 190.75
  Z"
/>
<path fill="#d7e4e8" d="
  M 120.55 194.11
  L 120.67 197.90
  Q 109.20 200.34 97.52 199.55
  L 99.42 195.21
  Q 110.09 196.59 120.55 194.11
  Z"
/>
<path fill="#9acbd4" d="
  M 175.46 196.62
  L 178.05 206.29
  Q 176.02 208.22 174.46 209.17
  Q 166.43 214.08 156.80 217.66
  Q 146.02 221.66 135.31 225.52
  L 133.44 215.97
  Q 146.59 211.81 156.25 207.52
  Q 165.82 203.28 175.46 196.62
  Z"
/>
<path fill="#85b4c1" d="
  M 120.67 197.90
  Q 120.79 207.38 122.51 216.85
  L 108.65 220.95
  Q 106.84 221.48 108.71 221.20
  Q 115.39 220.20 121.98 218.69
  A 0.67 0.67 0.0 0 0 122.48 218.24
  L 122.62 217.78
  L 124.68 227.78
  Q 113.68 232.19 102.29 235.08
  Q 102.04 234.52 103.35 234.22
  Q 104.01 234.06 103.85 233.40
  L 102.45 227.62
  Q 102.36 227.22 102.43 226.82
  Q 102.54 226.26 102.10 225.86
  Q 101.81 225.58 101.64 225.21
  L 99.76 221.17
  Q 99.54 220.69 99.59 220.17
  Q 99.96 215.87 97.82 213.43
  L 119.36 209.38
  A 0.28 0.27 80.0 0 0 119.57 209.07
  L 119.53 208.82
  Q 119.52 208.75 119.45 208.76
  Q 117.11 208.92 112.26 209.79
  Q 104.99 211.10 94.22 210.73
  L 97.52 199.55
  Q 109.20 200.34 120.67 197.90
  Z"
/>
<path fill="#fefefe" d="
  M 228.71 200.67
  L 229.95 205.85
  Q 230.08 206.40 229.53 206.55
  L 208.81 212.27
  Q 219.67 207.43 228.71 200.67
  Z"
/>
<path fill="#608c9e" d="
  M 310.15 221.02
  Q 308.61 221.66 308.43 220.00
  L 308.32 218.95
  Q 308.17 217.54 309.49 217.02
  C 317.14 213.94 324.59 209.96 332.07 206.71
  Q 337.58 204.31 342.95 201.61
  Q 344.38 200.90 346.90 202.21
  Q 347.26 202.40 347.20 202.80
  Q 346.59 206.86 343.25 208.21
  C 334.49 211.76 325.86 215.67 316.84 218.52
  Q 314.03 219.41 310.15 221.02
  Z"
/>
<path fill="#fefefe" d="
  M 178.05 206.29
  L 179.67 211.45
  C 171.11 216.78 165.26 218.27 155.77 222.22
  Q 151.35 224.06 136.02 228.88
  L 135.31 225.52
  Q 146.02 221.66 156.80 217.66
  Q 166.43 214.08 174.46 209.17
  Q 176.02 208.22 178.05 206.29
  Z"
/>
<path fill="#fefefe" d="
  M 244.46 255.07
  C 245.88 241.24 244.84 227.40 242.06 213.78
  A 0.29 0.28 76.8 0 1 242.26 213.45
  L 267.14 206.58
  A 0.63 0.63 0.0 0 1 267.94 207.11
  Q 270.02 223.99 266.46 240.62
  A 1.01 0.97 -12.1 0 1 266.04 241.24
  L 244.84 255.31
  A 0.25 0.24 76.3 0 1 244.46 255.07
  Z
  M 256.87 238.87
  C 258.99 237.71 260.08 237.95 260.52 235.16
  C 261.79 227.13 263.19 218.37 262.63 210.30
  A 0.45 0.45 0.0 0 0 262.03 209.90
  L 247.85 214.89
  A 1.25 1.23 77.6 0 0 247.03 216.19
  L 249.53 240.05
  A 1.39 1.39 0.0 0 0 251.32 241.24
  Q 254.12 240.39 256.87 238.87
  Z"
/>
<path fill="#d7e4e8" d="
  M 97.82 213.43
  L 93.64 213.49
  L 94.22 210.73
  Q 104.99 211.10 112.26 209.79
  Q 117.11 208.92 119.45 208.76
  Q 119.52 208.75 119.53 208.82
  L 119.57 209.07
  A 0.28 0.27 80.0 0 1 119.36 209.38
  L 97.82 213.43
  Z"
/>
<path fill="#9acbd4" d="
  M 256.87 238.87
  Q 254.12 240.39 251.32 241.24
  A 1.39 1.39 0.0 0 1 249.53 240.05
  L 247.03 216.19
  A 1.25 1.23 77.6 0 1 247.85 214.89
  L 262.03 209.90
  A 0.45 0.45 0.0 0 1 262.63 210.30
  C 263.19 218.37 261.79 227.13 260.52 235.16
  C 260.08 237.95 258.99 237.71 256.87 238.87
  Z"
/>
<path fill="#9acbd4" d="
  M 179.67 211.45
  L 181.85 218.82
  A 0.48 0.47 -16.2 0 1 181.52 219.41
  L 137.00 231.72
  Q 136.58 231.83 136.39 231.44
  Q 135.87 230.35 136.02 228.88
  Q 151.35 224.06 155.77 222.22
  C 165.26 218.27 171.11 216.78 179.67 211.45
  Z"
/>
<path fill="#608c9e" d="
  M 93.64 213.49
  L 97.82 213.43
  Q 99.96 215.87 99.59 220.17
  Q 99.54 220.69 99.76 221.17
  L 101.64 225.21
  Q 101.81 225.58 102.10 225.86
  Q 102.54 226.26 102.43 226.82
  Q 102.36 227.22 102.45 227.62
  L 103.85 233.40
  Q 104.01 234.06 103.35 234.22
  Q 102.04 234.52 102.29 235.08
  L 90.11 238.92
  Q 90.63 225.71 93.64 213.49
  Z"
/>
<path fill="#fefefe" d="
  M 232.69 219.24
  Q 227.10 221.17 221.60 223.21
  C 214.40 225.87 207.69 227.85 200.63 229.94
  Q 200.22 230.07 200.31 230.49
  L 203.09 242.69
  A 0.63 0.63 0.0 0 0 203.99 243.11
  Q 208.13 240.94 212.52 239.35
  C 216.02 238.08 218.74 236.35 221.90 234.64
  Q 222.02 234.57 222.10 234.69
  L 222.10 234.70
  Q 222.17 234.82 222.06 234.90
  C 219.31 236.86 216.88 238.47 213.58 239.79
  Q 208.67 241.76 203.81 244.10
  Q 203.37 244.31 203.44 244.80
  L 205.44 257.52
  Q 205.57 258.34 206.38 258.17
  Q 221.19 255.14 234.42 248.96
  L 234.01 255.94
  Q 230.16 257.29 226.55 258.67
  Q 214.88 263.14 202.56 264.28
  L 195.01 226.33
  A 0.37 0.37 0.0 0 1 195.27 225.91
  L 231.24 216.39
  Q 231.88 216.22 232.05 216.86
  L 232.69 219.24
  Z"
/>
<path fill="#fefefe" d="
  M 122.51 216.85
  Q 122.33 217.53 122.62 217.78
  L 122.48 218.24
  A 0.67 0.67 0.0 0 1 121.98 218.69
  Q 115.39 220.20 108.71 221.20
  Q 106.84 221.48 108.65 220.95
  L 122.51 216.85
  Z"
/>
<path fill="#9acbd4" d="
  M 232.69 219.24
  Q 235.12 233.82 234.42 248.96
  Q 221.19 255.14 206.38 258.17
  Q 205.57 258.34 205.44 257.52
  L 203.44 244.80
  Q 203.37 244.31 203.81 244.10
  Q 208.67 241.76 213.58 239.79
  C 216.88 238.47 219.31 236.86 222.06 234.90
  Q 222.17 234.82 222.10 234.70
  L 222.10 234.69
  Q 222.02 234.57 221.90 234.64
  C 218.74 236.35 216.02 238.08 212.52 239.35
  Q 208.13 240.94 203.99 243.11
  A 0.63 0.63 0.0 0 1 203.09 242.69
  L 200.31 230.49
  Q 200.22 230.07 200.63 229.94
  C 207.69 227.85 214.40 225.87 221.60 223.21
  Q 227.10 221.17 232.69 219.24
  Z"
/>
<path fill="#d7e4e8" d="
  M 124.68 227.78
  L 125.76 231.64
  Q 119.14 233.73 112.58 235.91
  C 105.23 238.36 97.55 239.93 89.97 241.98
  L 90.11 238.92
  L 102.29 235.08
  Q 113.68 232.19 124.68 227.78
  Z"
/>
<path fill="#85b4c1" d="
  M 185.56 233.06
  Q 177.38 237.06 168.81 239.13
  Q 158.94 241.51 158.77 241.56
  Q 150.01 243.91 141.04 245.74
  L 139.52 241.67
  Q 139.09 240.53 140.30 240.32
  Q 147.02 239.14 153.02 237.44
  C 163.26 234.53 173.54 231.86 183.79 228.98
  A 0.81 0.81 0.0 0 1 184.80 229.58
  L 185.56 233.06
  Z"
/>
<path fill="#608c9e" d="
  M 125.76 231.64
  L 126.50 234.72
  A 0.55 0.54 74.9 0 1 126.14 235.36
  Q 118.16 238.04 110.56 240.63
  Q 99.90 244.26 90.29 249.89
  Q 89.80 250.17 89.81 249.61
  L 89.97 241.98
  C 97.55 239.93 105.23 238.36 112.58 235.91
  Q 119.14 233.73 125.76 231.64
  Z"
/>
<path fill="#fefefe" d="
  M 403.58 237.58
  Q 401.97 238.00 398.24 238.49
  C 393.60 239.09 394.86 247.46 394.92 250.77
  Q 384.63 248.65 377.25 248.23
  Q 361.96 247.36 342.49 248.43
  Q 326.52 249.31 305.07 255.93
  Q 299.02 257.79 293.02 259.78
  C 282.75 263.19 274.00 268.46 265.58 274.85
  C 262.84 276.92 260.26 279.57 257.64 281.99
  Q 254.32 285.06 252.05 287.72
  Q 243.93 297.24 240.69 303.43
  Q 232.68 318.76 223.94 333.70
  Q 213.20 352.08 195.73 364.26
  Q 194.66 365.00 193.97 364.94
  Q 190.17 357.21 181.55 354.76
  Q 192.35 347.42 197.26 341.99
  Q 208.05 330.08 216.77 313.22
  C 222.56 302.03 228.69 290.80 236.04 282.32
  C 242.60 274.75 248.68 267.57 256.53 262.05
  Q 277.96 246.95 303.34 240.26
  Q 309.37 238.67 315.50 237.26
  C 335.89 232.56 358.13 231.57 379.19 233.12
  C 385.07 233.55 391.25 234.86 397.25 235.97
  Q 401.36 236.74 403.58 237.58
  Z"
/>
<path fill="#fefefe" d="
  M 185.56 233.06
  L 186.65 237.17
  C 183.22 239.03 178.58 239.87 175.99 240.69
  Q 159.52 245.95 142.34 249.49
  L 141.04 245.74
  Q 150.01 243.91 158.77 241.56
  Q 158.94 241.51 168.81 239.13
  Q 177.38 237.06 185.56 233.06
  Z"
/>
<path fill="#85b4c1" d="
  M 186.65 237.17
  L 188.86 247.84
  C 183.31 250.00 177.73 252.51 172.41 254.28
  C 164.16 257.01 156.14 259.65 147.61 261.48
  L 142.34 249.49
  Q 159.52 245.95 175.99 240.69
  C 178.58 239.87 183.22 239.03 186.65 237.17
  Z"
/>
<path fill="#85b4c1" d="
  M 130.55 247.80
  Q 127.30 249.01 123.99 249.72
  Q 115.68 251.49 106.84 252.58
  Q 117.68 247.53 128.66 244.24
  Q 129.16 244.09 129.42 244.54
  Q 130.24 245.92 130.55 247.80
  Z"
/>
<path fill="#d7e4e8" d="
  M 130.55 247.80
  L 132.26 252.22
  L 104.31 257.31
  L 95.54 257.84
  L 106.84 252.58
  Q 115.68 251.49 123.99 249.72
  Q 127.30 249.01 130.55 247.80
  Z"
/>
<path fill="#fefefe" d="
  M 188.86 247.84
  Q 188.90 248.26 188.94 248.67
  Q 176.25 254.74 162.75 259.20
  C 159.06 260.42 153.20 261.20 148.43 263.02
  L 147.61 261.48
  C 156.14 259.65 164.16 257.01 172.41 254.28
  C 177.73 252.51 183.31 250.00 188.86 247.84
  Z"
/>
<path fill="#1e384e" d="
  M 394.92 250.77
  Q 410.13 254.45 424.60 261.34
  Q 425.54 261.79 424.50 261.71
  L 396.00 259.60
  Q 394.74 259.50 394.74 260.77
  L 394.76 263.46
  A 1.19 1.18 3.0 0 0 395.81 264.62
  Q 404.43 265.56 412.44 268.94
  Q 412.54 268.98 412.51 269.08
  L 412.43 269.31
  Q 412.34 269.55 412.10 269.49
  Q 408.66 268.57 405.16 268.09
  C 403.04 267.80 399.97 266.55 397.03 267.11
  Q 395.43 265.88 393.01 265.54
  C 356.98 260.36 319.58 263.87 286.85 278.85
  Q 275.14 284.21 266.16 291.35
  C 261.46 295.09 256.99 300.40 252.56 305.06
  Q 249.26 308.54 242.92 318.99
  C 239.57 324.50 235.75 332.67 231.48 339.20
  Q 231.37 339.37 231.54 339.49
  L 231.54 339.49
  Q 231.70 339.61 231.83 339.45
  C 235.73 334.60 239.43 329.26 243.96 324.96
  Q 252.50 316.86 261.43 309.20
  Q 265.70 305.53 267.68 304.42
  C 275.52 300.03 283.64 295.16 291.34 291.72
  Q 306.98 284.75 320.65 282.11
  C 343.45 277.72 369.35 277.38 392.25 281.26
  Q 393.04 281.39 393.94 281.16
  Q 394.63 281.55 396.00 281.83
  Q 411.28 285.00 425.56 291.34
  Q 426.64 291.82 426.92 292.35
  Q 427.25 292.99 426.53 293.00
  L 390.83 293.76
  A 1.12 1.12 0.0 0 0 389.77 294.62
  C 385.45 312.96 377.67 329.38 366.56 344.62
  C 364.48 347.48 362.64 350.52 360.44 353.12
  Q 349.51 366.01 338.61 374.60
  C 316.52 392.02 288.43 404.03 259.68 407.26
  C 243.70 409.05 226.87 408.03 210.99 405.59
  Q 206.58 404.91 202.26 403.75
  Q 177.48 397.08 155.22 384.34
  Q 153.84 383.55 152.65 382.53
  Q 152.23 382.18 152.77 382.08
  Q 174.39 378.20 192.78 366.29
  Q 193.20 366.02 193.49 365.62
  L 193.97 364.94
  Q 194.66 365.00 195.73 364.26
  Q 213.20 352.08 223.94 333.70
  Q 232.68 318.76 240.69 303.43
  Q 243.93 297.24 252.05 287.72
  Q 254.32 285.06 257.64 281.99
  C 260.26 279.57 262.84 276.92 265.58 274.85
  C 274.00 268.46 282.75 263.19 293.02 259.78
  Q 299.02 257.79 305.07 255.93
  Q 326.52 249.31 342.49 248.43
  Q 361.96 247.36 377.25 248.23
  Q 384.63 248.65 394.92 250.77
  Z
  M 366.87 295.23
  L 367.16 296.49
  Q 367.28 296.97 367.62 297.33
  C 369.99 299.83 374.69 303.33 376.01 306.35
  Q 376.97 308.54 377.68 306.26
  L 379.31 301.00
  Q 380.75 297.87 380.85 295.08
  Q 380.87 294.48 380.27 294.49
  L 366.21 294.57
  Q 365.66 294.57 366.14 294.83
  L 366.87 295.23
  Z
  M 364.96 311.31
  C 355.86 300.33 341.30 299.53 328.87 302.08
  C 320.38 303.82 312.23 307.89 304.80 312.27
  Q 304.06 312.71 304.91 312.59
  Q 320.55 310.55 336.25 313.97
  Q 351.93 317.39 356.80 330.07
  L 355.93 342.90
  L 353.16 347.96
  A 0.05 0.05 0.0 0 0 353.23 348.03
  L 361.60 340.48
  Q 365.30 335.88 368.27 329.46
  Q 368.04 329.30 368.44 328.94
  C 371.55 324.66 374.85 318.37 374.10 313.04
  C 372.95 304.78 367.03 300.29 360.09 296.09
  Q 360.03 296.06 360.00 296.06
  Q 359.87 296.07 359.74 296.07
  A 0.08 0.07 -25.3 0 0 359.69 296.20
  Q 366.63 302.27 364.96 311.31
  Z
  M 317.73 335.23
  C 300.58 319.90 280.16 320.99 261.19 331.86
  Q 259.52 332.82 261.45 332.82
  Q 274.61 332.80 287.75 336.85
  C 299.89 340.60 308.53 347.00 310.97 360.19
  L 309.77 372.01
  Q 309.08 373.17 309.00 374.70
  L 307.21 379.33
  Q 306.09 380.27 304.94 383.20
  L 302.22 386.34
  Q 300.48 388.36 302.71 386.91
  Q 302.76 386.88 304.06 386.52
  C 315.10 383.44 323.10 374.75 328.69 364.48
  L 330.01 362.05
  Q 330.26 361.92 330.32 361.75
  C 335.24 348.73 331.99 333.95 320.76 325.47
  C 317.07 322.69 312.16 321.05 307.63 319.38
  Q 307.42 319.30 307.33 319.51
  L 307.33 319.52
  Q 307.24 319.72 307.44 319.82
  C 313.65 322.82 318.19 327.98 317.73 335.23
  Z
  M 276.31 365.36
  C 267.02 356.04 254.67 353.43 242.25 356.78
  C 237.40 358.08 231.91 360.87 226.88 363.14
  Q 222.05 365.32 215.69 368.64
  C 201.40 376.12 188.92 381.34 174.83 385.29
  Q 173.92 385.55 174.85 385.66
  C 184.31 386.81 190.77 386.90 202.49 385.37
  C 215.54 383.66 227.35 377.46 239.31 372.76
  C 243.64 371.07 248.57 370.02 252.75 369.93
  C 260.85 369.77 268.35 375.57 269.23 384.07
  L 268.37 390.97
  Q 268.01 391.65 267.86 392.59
  L 263.82 399.88
  Q 263.62 400.25 264.02 400.13
  C 272.03 397.78 279.31 394.46 282.85 386.48
  Q 284.98 384.45 286.35 380.60
  Q 288.22 374.75 287.17 369.61
  C 285.22 360.04 277.86 352.85 268.59 349.72
  Q 266.34 348.95 268.32 350.27
  Q 276.09 355.40 277.39 364.74
  A 0.59 0.57 -16.1 0 1 277.04 365.35
  Q 276.82 365.44 276.31 365.36
  Z"
/>
<path fill="#85b4c1" d="
  M 188.94 248.67
  L 191.18 260.29
  Q 172.80 265.31 162.99 268.43
  Q 162.67 268.54 162.40 268.97
  Q 162.16 269.38 162.62 269.48
  L 163.51 269.67
  L 152.89 270.84
  Q 152.37 270.90 152.14 270.44
  L 148.43 263.02
  C 153.20 261.20 159.06 260.42 162.75 259.20
  Q 176.25 254.74 188.94 248.67
  Z"
/>
<path fill="#85b4c1" d="
  M 132.26 252.22
  L 136.97 264.34
  L 112.62 271.51
  Q 111.97 270.08 109.30 270.38
  Q 108.63 270.46 108.80 269.81
  Q 109.10 268.71 108.72 267.73
  Q 108.55 267.27 108.87 266.91
  Q 109.34 266.38 109.00 265.75
  A 0.14 0.14 0.0 0 0 108.75 265.75
  Q 108.69 265.87 108.63 265.99
  Q 108.58 266.10 108.50 266.02
  Q 107.75 265.32 108.31 264.12
  A 1.99 1.98 28.6 0 0 107.57 261.62
  Q 106.46 260.92 106.64 259.76
  Q 106.73 259.21 106.29 258.87
  L 104.31 257.31
  L 132.26 252.22
  Z"
/>
<path fill="#85b4c1" d="
  M 234.01 255.94
  C 233.90 258.18 234.31 263.10 231.66 263.80
  Q 217.89 267.44 203.76 269.26
  Q 203.21 269.33 203.14 268.78
  L 202.56 264.28
  Q 214.88 263.14 226.55 258.67
  Q 230.16 257.29 234.01 255.94
  Z"
/>
<path fill="#608c9e" d="
  M 104.31 257.31
  L 106.29 258.87
  Q 106.73 259.21 106.64 259.76
  Q 106.46 260.92 107.57 261.62
  A 1.99 1.98 28.6 0 1 108.31 264.12
  Q 107.75 265.32 108.50 266.02
  Q 108.58 266.10 108.63 265.99
  Q 108.69 265.87 108.75 265.75
  A 0.14 0.14 0.0 0 1 109.00 265.75
  Q 109.34 266.38 108.87 266.91
  Q 108.55 267.27 108.72 267.73
  Q 109.10 268.71 108.80 269.81
  Q 108.63 270.46 109.30 270.38
  Q 111.97 270.08 112.62 271.51
  Q 103.41 273.74 94.24 275.40
  Q 92.73 275.67 92.38 276.98
  L 90.26 261.27
  Q 90.19 260.74 90.67 260.48
  L 95.54 257.84
  L 104.31 257.31
  Z"
/>
<path fill="#fefefe" d="
  M 191.18 260.29
  L 192.33 266.86
  L 174.90 271.16
  L 163.51 269.67
  L 162.62 269.48
  Q 162.16 269.38 162.40 268.97
  Q 162.67 268.54 162.99 268.43
  Q 172.80 265.31 191.18 260.29
  Z"
/>
<path fill="#fefefe" d="
  M 397.03 267.11
  C 395.55 271.50 393.10 277.86 393.94 281.16
  Q 393.04 281.39 392.25 281.26
  C 369.35 277.38 343.45 277.72 320.65 282.11
  Q 306.98 284.75 291.34 291.72
  C 283.64 295.16 275.52 300.03 267.68 304.42
  Q 265.70 305.53 261.43 309.20
  Q 252.50 316.86 243.96 324.96
  C 239.43 329.26 235.73 334.60 231.83 339.45
  Q 231.70 339.61 231.54 339.49
  L 231.54 339.49
  Q 231.37 339.37 231.48 339.20
  C 235.75 332.67 239.57 324.50 242.92 318.99
  Q 249.26 308.54 252.56 305.06
  C 256.99 300.40 261.46 295.09 266.16 291.35
  Q 275.14 284.21 286.85 278.85
  C 319.58 263.87 356.98 260.36 393.01 265.54
  Q 395.43 265.88 397.03 267.11
  Z"
/>
<path fill="#d7e4e8" d="
  M 136.97 264.34
  L 137.49 265.37
  L 120.26 271.29
  Q 106.68 276.04 92.65 278.34
  Q 92.59 277.05 92.38 276.98
  Q 92.73 275.67 94.24 275.40
  Q 103.41 273.74 112.62 271.51
  L 136.97 264.34
  Z"
/>
<path fill="#85b4c1" d="
  M 137.49 265.37
  L 141.74 273.84
  Q 132.91 278.26 123.86 281.23
  Q 123.96 280.62 123.66 280.44
  Q 123.59 280.40 123.33 280.40
  Q 123.10 280.40 122.96 280.22
  Q 122.89 280.12 123.01 280.12
  Q 123.17 280.12 123.35 280.13
  Q 123.49 280.13 123.47 279.99
  L 122.67 275.38
  A 0.82 0.75 24.2 0 0 122.52 275.03
  Q 121.76 273.98 121.96 272.74
  Q 122.03 272.25 121.60 272.02
  L 120.26 271.29
  L 137.49 265.37
  Z"
/>
<path fill="#85b4c1" d="
  M 192.33 266.86
  L 193.07 271.48
  A 0.57 0.57 0.0 0 1 192.62 272.12
  L 181.66 274.44
  Q 181.18 274.54 180.75 274.31
  L 174.90 271.16
  L 192.33 266.86
  Z"
/>
<path fill="#608c9e" d="
  M 120.26 271.29
  L 121.60 272.02
  Q 122.03 272.25 121.96 272.74
  Q 121.76 273.98 122.52 275.03
  A 0.82 0.75 24.2 0 1 122.67 275.38
  L 123.47 279.99
  Q 123.49 280.13 123.35 280.13
  Q 123.17 280.12 123.01 280.12
  Q 122.89 280.12 122.96 280.22
  Q 123.10 280.40 123.33 280.40
  Q 123.59 280.40 123.66 280.44
  Q 123.96 280.62 123.86 281.23
  C 116.89 282.84 110.23 284.84 103.10 285.85
  Q 98.75 286.46 94.29 287.23
  L 92.65 278.34
  Q 106.68 276.04 120.26 271.29
  Z"
/>
<path fill="#d7e4e8" d="
  M 141.74 273.84
  Q 142.08 274.36 142.20 274.85
  Q 142.33 275.35 141.86 275.58
  Q 138.30 277.35 137.06 278.57
  Q 134.15 281.40 131.77 282.77
  Q 113.48 288.66 95.50 291.10
  L 94.29 287.23
  Q 98.75 286.46 103.10 285.85
  C 110.23 284.84 116.89 282.84 123.86 281.23
  Q 132.91 278.26 141.74 273.84
  Z"
/>
<path fill="#85b4c1" d="
  M 224.79 275.62
  Q 225.95 275.44 225.33 276.44
  C 223.18 279.90 220.31 283.05 218.30 286.46
  Q 212.58 296.17 206.47 305.62
  Q 205.97 306.40 205.97 305.47
  Q 206.04 292.29 204.46 279.21
  Q 204.40 278.73 204.89 278.65
  L 224.79 275.62
  Z"
/>
<path fill="#fefefe" d="
  M 153.13 341.85
  C 150.60 336.88 149.16 331.91 144.12 328.80
  C 152.59 327.11 165.31 325.90 171.88 319.54
  C 177.77 313.84 179.09 304.76 173.01 298.46
  C 166.28 291.47 155.95 292.38 150.36 299.89
  C 146.18 305.49 148.57 313.59 155.28 315.36
  Q 157.88 316.05 155.20 316.31
  Q 145.26 317.26 135.53 319.50
  A 0.32 0.31 70.8 0 1 135.17 319.32
  C 130.12 308.28 133.30 294.93 142.10 287.04
  C 150.42 279.57 162.28 278.75 173.03 281.73
  C 175.78 282.49 176.54 283.07 179.27 284.89
  C 202.09 300.04 192.14 331.20 168.75 338.73
  Q 162.64 340.70 153.13 341.85
  Z"
/>
<path fill="#608c9e" d="
  M 131.77 282.77
  L 124.67 294.28
  A 3.26 3.25 -85.4 0 1 123.20 295.54
  L 101.33 304.87
  Q 100.81 305.10 100.53 304.59
  Q 97.02 298.05 95.50 291.10
  Q 113.48 288.66 131.77 282.77
  Z"
/>
<path fill="#d7e4e8" d="
  M 379.31 301.00
  Q 373.44 296.87 367.51 295.10
  Q 367.11 294.98 366.87 295.23
  L 366.14 294.83
  Q 365.66 294.57 366.21 294.57
  L 380.27 294.49
  Q 380.87 294.48 380.85 295.08
  Q 380.75 297.87 379.31 301.00
  Z"
/>
<path fill="#608c9e" d="
  M 366.87 295.23
  Q 367.11 294.98 367.51 295.10
  Q 373.44 296.87 379.31 301.00
  L 377.68 306.26
  Q 376.97 308.54 376.01 306.35
  C 374.69 303.33 369.99 299.83 367.62 297.33
  Q 367.28 296.97 367.16 296.49
  L 366.87 295.23
  Z"
/>
<path fill="#85b4c1" d="
  M 368.44 328.94
  Q 368.53 322.16 368.20 319.75
  Q 367.64 315.65 364.96 311.31
  Q 366.63 302.27 359.69 296.20
  A 0.08 0.07 -25.3 0 1 359.74 296.07
  Q 359.87 296.07 360.00 296.06
  Q 360.03 296.06 360.09 296.09
  C 367.03 300.29 372.95 304.78 374.10 313.04
  C 374.85 318.37 371.55 324.66 368.44 328.94
  Z"
/>
<path fill="#fefefe" d="
  M 364.96 311.31
  Q 367.64 315.65 368.20 319.75
  Q 368.53 322.16 368.44 328.94
  Q 368.04 329.30 368.27 329.46
  L 367.59 329.57
  Q 367.11 329.66 366.73 329.34
  Q 362.36 325.70 356.80 330.07
  Q 351.93 317.39 336.25 313.97
  Q 320.55 310.55 304.91 312.59
  Q 304.06 312.71 304.80 312.27
  C 312.23 307.89 320.38 303.82 328.87 302.08
  C 341.30 299.53 355.86 300.33 364.96 311.31
  Z"
/>
<path fill="#608c9e" d="
  M 110.35 324.32
  A 0.82 0.82 0.0 0 1 109.46 323.89
  L 104.82 314.75
  A 0.93 0.93 0.0 0 1 105.24 313.49
  L 120.95 305.73
  A 0.71 0.70 -11.6 0 1 121.97 306.40
  Q 121.56 313.66 124.01 320.49
  A 0.97 0.97 0.0 0 1 123.29 321.77
  L 110.35 324.32
  Z"
/>
<path fill="#85b4c1" d="
  M 330.01 362.05
  Q 329.94 361.93 329.85 361.85
  Q 329.61 361.63 329.33 361.82
  C 323.54 365.82 317.01 371.41 309.77 372.01
  L 310.97 360.19
  Q 315.01 355.32 320.48 356.01
  Q 322.10 356.21 323.24 357.01
  A 0.64 0.64 0.0 0 0 324.25 356.51
  C 324.42 350.27 323.41 342.62 319.56 337.92
  Q 318.42 336.52 317.73 335.23
  C 318.19 327.98 313.65 322.82 307.44 319.82
  Q 307.24 319.72 307.33 319.52
  L 307.33 319.51
  Q 307.42 319.30 307.63 319.38
  C 312.16 321.05 317.07 322.69 320.76 325.47
  C 331.99 333.95 335.24 348.73 330.32 361.75
  Q 330.26 361.92 330.01 362.05
  Z"
/>
<path fill="#fefefe" d="
  M 317.73 335.23
  Q 318.42 336.52 319.56 337.92
  C 323.41 342.62 324.42 350.27 324.25 356.51
  A 0.64 0.64 0.0 0 1 323.24 357.01
  Q 322.10 356.21 320.48 356.01
  Q 315.01 355.32 310.97 360.19
  C 308.53 347.00 299.89 340.60 287.75 336.85
  Q 274.61 332.80 261.45 332.82
  Q 259.52 332.82 261.19 331.86
  C 280.16 320.99 300.58 319.90 317.73 335.23
  Z"
/>
<path fill="#85b4c1" d="
  M 368.27 329.46
  Q 365.30 335.88 361.60 340.48
  Q 358.93 340.98 355.93 342.90
  L 356.80 330.07
  Q 362.36 325.70 366.73 329.34
  Q 367.11 329.66 367.59 329.57
  L 368.27 329.46
  Z"
/>
<path fill="#fefefe" d="
  M 361.60 340.48
  L 353.23 348.03
  A 0.05 0.05 0.0 0 1 353.16 347.96
  L 355.93 342.90
  Q 358.93 340.98 361.60 340.48
  Z"
/>
<path fill="#85b4c1" d="
  M 286.35 380.60
  Q 284.99 381.57 283.97 382.94
  C 280.96 386.99 273.49 390.88 268.37 390.97
  L 269.23 384.07
  Q 274.15 379.17 279.91 381.93
  Q 280.53 382.22 280.63 381.55
  Q 282.07 372.33 276.31 365.36
  Q 276.82 365.44 277.04 365.35
  A 0.59 0.57 -16.1 0 0 277.39 364.74
  Q 276.09 355.40 268.32 350.27
  Q 266.34 348.95 268.59 349.72
  C 277.86 352.85 285.22 360.04 287.17 369.61
  Q 288.22 374.75 286.35 380.60
  Z"
/>
<path fill="#fefefe" d="
  M 276.31 365.36
  Q 282.07 372.33 280.63 381.55
  Q 280.53 382.22 279.91 381.93
  Q 274.15 379.17 269.23 384.07
  C 268.35 375.57 260.85 369.77 252.75 369.93
  C 248.57 370.02 243.64 371.07 239.31 372.76
  C 227.35 377.46 215.54 383.66 202.49 385.37
  C 190.77 386.90 184.31 386.81 174.85 385.66
  Q 173.92 385.55 174.83 385.29
  C 188.92 381.34 201.40 376.12 215.69 368.64
  Q 222.05 365.32 226.88 363.14
  C 231.91 360.87 237.40 358.08 242.25 356.78
  C 254.67 353.43 267.02 356.04 276.31 365.36
  Z"
/>
<path fill="#fefefe" d="
  M 330.01 362.05
  L 328.69 364.48
  Q 327.52 364.76 326.72 365.46
  C 324.04 367.85 321.79 370.69 318.51 372.07
  Q 313.99 373.97 309.00 374.70
  Q 309.08 373.17 309.77 372.01
  C 317.01 371.41 323.54 365.82 329.33 361.82
  Q 329.61 361.63 329.85 361.85
  Q 329.94 361.93 330.01 362.05
  Z"
/>
<path fill="#85b4c1" d="
  M 328.69 364.48
  C 323.10 374.75 315.10 383.44 304.06 386.52
  Q 302.76 386.88 302.71 386.91
  Q 300.48 388.36 302.22 386.34
  L 304.94 383.20
  Q 311.20 379.74 315.26 376.35
  Q 318.26 373.84 314.76 375.58
  L 307.21 379.33
  L 309.00 374.70
  Q 313.99 373.97 318.51 372.07
  C 321.79 370.69 324.04 367.85 326.72 365.46
  Q 327.52 364.76 328.69 364.48
  Z"
/>
<path fill="#fefefe" d="
  M 304.94 383.20
  Q 306.09 380.27 307.21 379.33
  L 314.76 375.58
  Q 318.26 373.84 315.26 376.35
  Q 311.20 379.74 304.94 383.20
  Z"
/>
<path fill="#fefefe" d="
  M 286.35 380.60
  Q 284.98 384.45 282.85 386.48
  Q 275.79 391.81 267.86 392.59
  Q 268.01 391.65 268.37 390.97
  C 273.49 390.88 280.96 386.99 283.97 382.94
  Q 284.99 381.57 286.35 380.60
  Z"
/>
<path fill="#85b4c1" d="
  M 282.85 386.48
  C 279.31 394.46 272.03 397.78 264.02 400.13
  Q 263.62 400.25 263.82 399.88
  L 267.86 392.59
  Q 275.79 391.81 282.85 386.48
  Z"
/>
</svg>
